<mxfile host="65bd71144e">
    <diagram id="2VhnboIU0I9tiZ5OdqNy" name="第 1 页">
        <mxGraphModel dx="1979" dy="1020" grid="1" gridSize="10" guides="1" tooltips="1" connect="1" arrows="1" fold="1" page="1" pageScale="1" pageWidth="827" pageHeight="1169" math="0" shadow="0">
            <root>
                <mxCell id="0"/>
                <mxCell id="1" parent="0"/>
                <mxCell id="2" value="" style="shape=image;verticalLabelPosition=bottom;labelBackgroundColor=default;verticalAlign=top;aspect=fixed;imageAspect=0;image=data:image/png,iVBORw0KGgoAAAANSUhEUgAAAzQAAAHFCAYAAAAkI7ziAAAAAXNSR0IArs4c6QAAAARnQU1BAACxjwv8YQUAAAAJcEhZcwAADsMAAA7DAcdvqGQAAH1wSURBVHhe7d3fz2TFned5/wez3r1wr7rV3eNlWt5pyx5YFmZthDHlscYFJWBLQJVXeG0DVeKn8UWLsTACLLcGcLuELCyB9wIkBDVuLmyjlQtfIWHJLXnRWkgWLSGrZcl/QMst7d7NxmaccyLze77nGxHfyDyZT+bzvC9eejLj1zkZmc+T8ak4mfWRT3zy2lDy2Zv+Y/jkv/v3Zh0AAAAAHCUCDQAAAICDRaABAAAAcLAINAAAAAAOFoEGAAAAwMEi0AAAAAA4WAQaAAAAAAeLQAMAAADgYBFoAAAAABwsAg0AAACAg0Wg2dDFbzxplh9ncz7m3FhHNa/bOJ+jeiw4GTZ9zdbaHfVrf9MxdP85zgkAsF8INBs6iW+OngWCd15y7VJ5bZxY72H1TWS953ar1r66fbxfI9tLVtscqz/mZ829xeqbyHrP7ZKWY9XotrX7Xuv2i+Y6BwDA/iLQbOCkvjFaj7tl0RDrcmQb63Yrb9/UTv/U9etYp6/sUzuX0vhWnbcMR8P7XKR2+qeuL4ltpFwbq9yi21p9S8dZlzVeouut9rUxAAD77VgFmmvOfDNcvO/ucI1Rt3Td3eGeb3wzfPE6o64gvXGuwxrvkFmPSZa1POZc2znmbZ0xSuejedrU6DESWafb1e5LVp237OjcFL54Xz8/Zz9v1R9f6zwPuT6xXLPa5G7npDaariu19dp0TKv9Ns4TAHC0jlGguSWcXbwx1RZAN5xfvCmfv8Wsa3E4b4LD4nDDxxwfr8VqW2KN4WWNJX/KclmWa5fKSqx++v7c5VpqF39qst5i1XnLmnT/UDBXADm+gSbNs57veF+W5dqlshKrn76vy0rtS+2kWNfCGiNJ9bpdrjzHaifLvOMAAPbb8Qk0n7+weHO6EG6w6pZ8ocej9ka5P+YJNJJeENTIvlKqs9qU+iWyTettLdXpn/q2dX/ucq12/NI4sc7L6u82a6A5vuQ8t97WUp3+qW9b92W5lsplG+t2TUtbqXS8lnOJ9VabVFbrDwA4HMck0PSL9nvO3GTUrbguSXPIvRHu5xvkdgPNuvQYpfu54+X66J+6XpPl1u11xlm3PJYlsky3Kd2XrDpvWRMCjUvuudM/db0my63brePkfpZul3jbabpf630p1ln1uXIAwOE6HoHG9bkYX+ipKb0Zzvkm2YWv4Vg94/ENi8hlGxnWdJ2yycIz9pc/W8nzsKQ2sn26Lc1Rrsty92W5NU6u3Oqv6yyyLt6ukX0lq85b5jF9nUpyx3S1OzruI9usLjXr5X+nu0tHl+1W5O939txG4b52TPF3o9sFzrXziX03Lddlufuy3BpHlud+lm6XxHYlVp85pWNYx9rF8QEAu3UsAk23uKntvHSLkfUWIYl+k4w/a2R/N8+5Gm3sedjODs26jy31k/2tsWr1Vnm6r3/q+pxSfW5MyaqTZbreO1apXeQdp7WsSXWHpg808Tir12jhtVn4HejDjAhCw7GnYUb2H44/OlZfNvpHjslxZeBZHdP1N8eg5znd1z91fU6pPjemFOu0XHmix9BSm1zb2hjpODVW30jW6Xa1vgCAw3QMAo3vczHdAmSDRX3pTbJW3qpfjJU+DyT+1ViWmztV8wYaa0GQyiyynWS1jWS9/Gmx2ntvy7Ic3U7+tOT65Mq8Y6Xb8aem22q6fYnV380baNTrMBsMsoHGej1Py6xxdVn3ezY5tv7dGsZW7eq/ozY5z623ZVmObid/WnQbq0/udk6tvWeMKNfO2z+yzqWlPwDgMBx8oHEtLKqLrTZzvNGWiX/NNhd1sn5q/DjnCTRp7HRb17eSY1jjeY6Va5O77xkrdz9XJsl6z7E8beRt3b51nNayJs5AMwnhOWvs0Mhj53Zo5PH7cTKWvy/z/P4kcWz5U5fr+7pcqo2RK5P0cdYZQ9Jta/dr5uov+7WOAQDYfwceaPS/ptrsf4ldX+4Ncf43ymExtRg3Wi3YWhaH8y7IojkeZ3pMmm4j72u59rl+LeXeMinVz9FOtsm1z5VLVp23rMkOA00fVsavm8m4Xf9xG/07kN0dGtlOoNH3dXnSUu4tk2K9ZrWRP0s27W/ZpH/pfLzlAID9d9iBpltE2YueFV/oabH7N0S9qGpZZO1voLFuS7U23rKkdBxZVxo3N0ZUqrPUxtLHTGWSrLdYdd6yJjsLNP04+eNEvt9532Vj8/7+tM59ri6Wy7rSuLkxIt2mNI6+ra1b57Fuf6tfbqxNzxEAcHQOOtB0/8JaW2h0C6P2a91Ldv+GaCwGh3+B9iwQJ5fobGiOxxnHyEn11k/JKiuptY/1uTapvDRGbXzNO1Zt3Fx9S3ntGHX9azT/+zhvoCmP4w0hwzkXd2m2H2hKau1jfa5NKi+NodvEnx5yDNnfkupKbXLk8eRtL6t9bozWsQEA++OAA02/GCn/S60z9DRKb6xe1hgl1rX95gLOuqzGXJwNizLRrjZvlthP/ky3a1JbKVce6brcOKm8hR4jkfW6Xe1+rVzLHSendrxafam8NkaTYZcmjtWTIdoTRIaAYZG/w9brPpKv/cm5JDrYW8eUQWr+QNPKGieS9bpd7X6uPDeeVKqTYjtrfE//UjvvGFFtDM1qCwDYfwcbaI7iywCSk/zGN9djz43TWt7CGiOW5crlT63Ux8Pbttau5fxyWtoeudzv9FDeB6ZceBrCy8z/wLFN1nMTy3Ll8qemy637ub5eaYzaOFYbb9/E0947FgDgsB1ooOn/1bT8r73zfxkAgCM27M5MAo0sH4Ub0SZXDgAADtphfykAgBPH+pazyedtMpelzb1bCwAAjh6BBgAAAMDBItAAAAAAOFgEGgAAAAAHi0ADAAAA4GARaABg4dlnn62y+gEAgKNFoAGAhRhYrrrm01kEGgAA9hOBBgAWCDQAABwmAg0ALBBoAAA4TMcj0DxyOdz183dXfvxy+JTVbp+kcz6Ec232ufDAlW+Fl375rfDE01b9Afjen4bwj38a3rTqUHfzreFXP7oQfnbOqJvdp8M//Poj4Xffs+r8xoHmr8OvFmOGf1z49Z+H/0ygAQBgbx1+oLnj5XDrIhicesSoOwpdUPlF+OwdRp20b4Hm3jvDc7MFkAMPNA9+PPxxsZDNL5BvCK/+3YXwq4duMOr2230PfSW8/3e3hvuMulmduyu8/6OvhFdvNuq2oQugm4UaGWj+/u1VkEllBBoAAPbTwQeaT333F/u1y+ENNPtm1kBzyD4RfrdYGP/xtU8bdckXws92tvswr7/99oXw/re/YNbNaWfBSXjutY9utKu2CjRXda+B311ahRkCDQAA++vgA821L+3ZZVsEmoP25pX4L/MfD88ZdUu73n2YTR/EdrGztKvgNNZfehaufMKoqyPQAABwmI53oLHChb5Erbsf21wIn/3xYqx4GVj00ndWfVRfq013HrJOkueXLjVLrON0vhNOyXbm43Ced8GNP3y0uzTMdm84u2x7OjyxKIuBZ9xHtlldatZ7NDxwb6obO3tZtlt57oefW7bJntvl02Ks2jH7+m7cp+8ttIv63Rn7sqX+MrP3F4HApHcjutCj290V/nZU39/vFv+pzWRXwz6uDiXdjohsI8LEpG5kG8FsFZxGx7Z2bIbP2qzOR8xRLoCVAmV36dlHwz88aNRVEGgAADhMhxlodChQlmHFHWisfupzOUPZrd+9MCobtVm2U8c0DUGkEJzksbpL6+Q5ec/bq7pD0weaLgxcuTPc2JUNYWIUMAZdeLADTR9mRBAajj0NM7L/cPzRsfoy2W96XBl4VsfszmH5OAbOxXAXQAqXU/UBZbzg1n36S7LuCj+Tn8XRH6RPi3250zH5sP0QeEbns0YQmJMMKctzn55TH3ZK8zQ8NrXT0/eTwUcqhdIyAg0AAIeJHRp9v9PvjqwCxbBb4tn9mCHQ2I9JtXeddwNvoFHhxQwGUTbQWCFoWmaNq8u60DM5ttiREfd1uz4wyd2l4TMYtcvNal8IYIaG6cI87cqMxhmFFXsxr8fvg5EKV12b6Wd8zLbbMBy/GLK6x6rnqW8zmafROJl5WVr/srNloLn0J4tg+yfh70WYIdAAALC/CDSeYGC2ydg40PTlVigZfQHCEQWa0W5IyRo7NPLYuR0aefx+nIxlOLIClM31+Zlh0Z37QoDpAjzSuxPDorwULiY7MT1zByOGgBF7F6brmw0C85nsvKQdG/F4+zbynHuToNiFI32pnv34ehsEmv/zi903pYW3rxoFGQINAAD7jUBDoOntMNBYn42ZjNv1H7dx7w6N+AONa4emuKDuA4ZelE8W+MblVxN6Id9ROxiZ0GNzHHMmfejqL6frg4qer9ouizDayfE8hj7QlL+lzjbeoflX4VePEmgAADgEBBpXMGgIChsHmv2+5GzzQNOPkz9OpC8bs1mXjU35A43nMzR9OMl9fsMKNEMIkX08QcQINF1QkAv6lkDTFH42MZ6D/pz1fDUEmmH+4nl3c1/tw2doAAA4aY53oMmEF+vD9bVgMPlQfrQIL+N+C8N49VCRDzR9KLKOL4LS3IFmCBr5hf+8gaY8jjeEDOdc3KVpCDSe/4PGsUOzurRqWIx/W4WT6mVTC12bVQCRl2itQok+Xol3h+bxcOmtd8Kbb70Vnrzdqq+YBKch0KkgMt21yhkeY/fYc0FS4FvOAAA4cY53oFlIQaR3OVw7LPpbA01nCBpLVhix2onzG5+PZO8krerjuU/r5ws0C8MuzeoyL7n74QkiQ8CwyEBhXU4WyWAyOZdE78hYx5RBqiXQDJ+jqfznjGmnZBowFoYFvazrFu8idPSXZNVDyOg4MRCULkNTRueUDCFpydztOBeefD0GmoUXHzfqK6ywlo6rjqfnMXdOKcyZj2mE/4cGAICT6OADDQ5M7tK2obwPTLnwNIQXZzhZj2OX5oh4g9DGHn61CzSvPHPOrt+p8SVsJd1noCphtIRAAwDAYSLQYLeG3ZlJoJHlo3Aj2uTK59ZdtnSUocZYxKtL0LYn7dC8Gi6a9bs0XG5m7iQpw3O2zmdnklWg+evwq7jT8+s/D/+ZQAMAwN4j0GDnrG85m3zeJnNZWvnLBGbULZDX/9f+ORQvbduC08+81V9q9vqlcNqo3xlxaZzvMfeXmm0SZqJVoIn6XZrua5yHYEOgAQBgPxFoAGBhHGimCDQAAOwnAg0ALBBoAAA4TAQaAFgg0AAAcJgINACwEANLjdUPAAAcrYMMNP/x9O3hU9d8xqwDAAAAcHIQaI6Ji9940ixvMccYaJebd+/zsc3nbR9eE7wuj79NnuPYt8bqBwA4Pgg0x4R809Zv5pLso+l63VeTbbG+3Fx651i2S89Njuzn0dJHH8ti9atJ/fRYku6Dw7Pu81jrx+sDAI4/As0xId+0c2/grW/8pfa1seC37vOVeNqt+3yt00/3SffjT4tsq8n6XNvaGNgv6XlvZY0VleqiWj0A4PARaLbshvOLN+Pzt5h1yTVnvhku3nd3uMao85Jv2rk38NY3/lL72ljwW/f5Sqx2sSyVe8exrNNX95H3S3Wa1TZHtttU9zu74e8j8tZ5vkp95Osgx+r3iU/eEs4u6u45c5NRh01072nyObDeAz9/YdyG3zkAGyDQbNN1d4d7vvHN8MXrjLql/k317OeturLRm8EgV57oMXLtc+WSHseteyOrzcse6p7P9Z6rktxc1uZYPheJ1UaX5eixSqz+Sam9vG3dt8rTbU/bORxpoBleY3oB2J3Tonzu196urfNc1fqsX0+g2QrP3/ct/S01Her7DYAmBJotcu28dH9sL4QbrLoG8k079wbe+sZfu782As3Ius9XItvF2zWyr2TVecskXS/vl+pyUpv4M0f32cReBJrR34R+4R0f56EHGm2O5642Rr6eQLMNu7oqwY1AA5wIBJqt8ey83BS+eN/mb6jxDVu+aefewFvf+Gv310agGVn3+Upku9pzVhrTqvOWSaVjluostfptONJAE383Fsf+4uIclq+zRdk9Z27p/lactEDjef5jmxqr37EPNLvcBVnq39NqgWanv2MEGuBEINBsS/dHtLLz0r3hbP6HVr9xy/ua7iulevmzRvavSZfNmPSbWzd/so2ey1VgHF+vbbcbjxWpedfHE2/Ik+vBR+bdXfOUS/Jc0n1dX7ovWXXeMinWa7JOt5X3JatviezbZPJaW9Cvx+XOSaZ++fs+fr1NF8vDgk+0GY0Vx4n348/uNRjbx9fq9B8/Jq9LdU7LfykfPb79WtjFc8qV5+rmMw00qzlVv9f6NSIX7EPdNDgcfWBKj2eOc9B/v+2gNFeg0b8nmdet/r0Ux93s/eb4/eMBcNwRaLZirj/qdfEPr/6Zbsvy3H1pk75NujePwsIqvkmN5m6Yz9FciYXjslzP+9BGjNW/wY+P3ZfJBUzm+dvSv3ha85rKanPePX7R1kOPkVh13jJJ1+ful8bxtIlq9TXW62Hye2m8Xu02/fwuXx/GQrf6Ox/7dPXxtbt4TcbXXHe/f00uF6aLduNF6vS1vlrQrV7bfZlarB8h+fyl+ZNlObJtq9U448CRFv/697v+9yHz96J7/vdgrtNrs/S6KzIen/pbmObONvzupPPIWM37+HnpdH3Ve8Ywnm6nnz+zr7Slv+sAdotAsw3dH8jCH9BO/0d70z+i8Q+6/Om9LcXyRJeX7q+t9gZjmC4qpgu4aLRgtN6oJmWZ56E7R7UY2cIbX5rT3FyX5txqkxsnd1+y6rxlUu2Y6X5uHFku23qkfj7GwmlhHDpUkEj07/iwuBq/NpwLX6F7nQ/Hjudx9nwKLpnzEMbnnQkvW3gNb2L95y7PP9bq+e/nyvqb5Pv70P99kv3rz/VuDX8v1wlY1t/ChW7OJo/P97j1a1WSvwOrcv36Hx6PZ35r7ze1egAHgUCzBaU/1sl0gd5OvnHnbqf7njd5q1/6aZFtmzjeQPoFhibny16Mjk3f9CbzPizwpseK1DluMdDkbssyzWqj29fuS7HOy+qfyHqrn/5ZUmvjGSNLh5LB+Pc3LQRty9dC5jU9+VvQtRv6G38jRou50fnpheJwX5yLHtP+O+T5vdmdeM5WeQs9hn/M8XNr/l67/z6oec28tlzkaySZLNyt12Xt/WT1mmn5G9b/zdTHGkxeX5sHGvtv/yCN2/K3uPp+M/5dmvPvO4DdIdDMrn+jKf9R7P+AzrmoiH+IrdvW/ZxcP6u/d0xT5Q2mf0Mb108DoGdhZi361HFb3hhb2jrJeUy3ZZl1X9Nj1Mi+klXnLUvlWiq32uoyi2y3yTimzKJzvNjyvM4WSoHGWtwNr6V4/vJ1PQo0ymqs9LoeL2DH5z2937P/PvXnscFcrslzzFobXZ8eiybb9FbPbTdX1t+kht95Od/d81hZ1O9W/1jroWdq+re3ZKZAk6lbavlbXA00K/3roDfn+zOA7SPQzK3741n5459ZSG1CvmFbb972G/qYbpPurzteVvENxn5DXCvQeJ4L74I1ankTdcjNYe55yJH1tb61sbQ52nvLLLpd7X4T8/kcXn/LBZVvgWa/pvu+xdeWOoduQZU51qrOfs3qhaC5MMz87YnzuNFcrslzzFobXe9/HHIeh+d58vei9e9DnNs41rx/3zcyvMaqISGnIRB4f1/M1+bAF6Aanpem8++Vzg/AfiLQzMqxgFlYLUzs+nXIN/F0u/WN3hpD3y6VuQ1vsLl50m8m/RvcomytQFN/I0vj14NKf8y5nruWeS3Nt6zT7Wr3a1rbW3Ln4Bm71maz8xsWX8vXWlrUjl9//euo/bXWvY5rCzPVr/S3YVU3XTT2x1oQ561/j2qv383mcj2eY5bapDrZxv849N+QYX7Uc+b/+5B5/RyhdO6196Sy9LhqISOavjYt09emNDwPlTk0n5fF79Pkeaq830z5HgOA/UKgmVPmXz/H+j/W9TfHNvJNvHtDFfclqy7dl+X6tiXVr2VYJC5ZCy9Z17VvDDQLy4WeovutQpNgvaGlf+1c8rzJT8W+nrLEW6fbpfv6p1dre4scQ49XGz9Xn8pr/evGr7X4e9m9FvRiSr9eI9mmVt9Rr+uOEYIyC6nRIlC/Dhd99Hlbr/3c70uss8p3QZ+jJdfPup9rP2X8DVnO6/h5cf99GF4Hc/99X8vwWOY5FxHWhOnYcwSaqP670tG/d7nj6nbi2O7nFsBeI9DMqP5HOv3xXG8RXBL/CFu3vUr9rfHWOcau5ea6L68Fz+1Zdz5zbWR5aRzPMbR1+mhpjNxY657zHOc2m27BdHSvKYvn79GhKr2Waqx+s+leB/P/fQcAlBFoZtP/i1L5X8P6f73yb31jE/2/UE8XF7lyYG0EGsy6IwIAaEGgwTFmXybBIg+zI9CcWPKSJcIMABwNAg0AAACAg0WgAQAAAHCwCDQAAAAADhaBBgAAAMDBItAAAAAAOFgEGgAAAAAHi0ADAAAA4GARaLC+294J537yz+G2B406bOjZcOq1fw5f+8EbRt02vBFuWzyX55561qg7oa6/HH7z2HvhjeuNumPrkfDG/R+Et2+26gAA2E8EmpPgkcvhrp//Inz2DqNuE0ccaD7zg8WC/yd/CKduE+XDOX3ttXfC1aLt4TnwQLOPYffpe8NLv3w0PHCvUTfx/fD2Yx+E35x5xKg7F558/Z3w5ouPG3X77eKLi/N+/VI4bdQt3XwlfLh47IQaAMChINCcBMc60IwX4Vc/9YeujEDTikCz0u9SfHj++0ZddMwDzcLFM+8tQs2V8LxRBwDAviHQnATHMtD0C/7bnlqcwzK8xLL3w2cefJ9A04xAk9QX88c/0NRDHQAA+4NAM7sL4bM/fncRIJLL4VrdpgsYos2PXw6fmtTHft8Jp0S7W797YTzO5FgLYqxrX1J1kj6my7DIXixUJb1oTTsndn0/Rlw4L3dTOosgIsboxGAixolWYw2B5sH4c7jsLLaPAaDrJ8ebnvd44d5wTjvjO6durlV469vX53M8B9NAszquGks/LyJ0jc9VW2c+T4cnfvmtRRDRxsHk7OVx/RNP5+tGrtwZbhza9fqFvHmp2e2XwitvLQJBxqWHZfsh9Ij6V545J+qvDaefeWsIF4+HS7V2on5pFKj08d4KT96e6sbja/p4S92lZyftM0QAgENEoJnVEEBGYWFR9tJ3lm0+9d1fLAKF3C1JoUQEn2XgWbWb9hsCiyeYzLJD0y94RzsGk3+FH4KDp00ca7SzIu9b/bS+T6yPi+i4EI+L+669CjSf+YH6nM2wIG8+p50S57Scz6FMzK830KSgIefz6qfeF/MyDjRW+1W5HHt6Tp1ZdmiGMHP59LLsxh8+uggiMsx8LjxwZdzmE/feGZ5b9JOhpuPZoem+CKD2+ZH6Ds3FF2WgWHj41S48yNAjg8qyvGu36tu3McLJ6Nh92SiYqHES/w5N1H+OiM/SAAD2HYFmRv2OiLEjs9QHnslOyx0vh1sX5aceGe5bAUS3SUFIhKWsGQKNtUieLFonOyO9btGtF+U6KHR9RfDQ9yf6BXh37Hger70fbouXm8W6zHnovqvdCOc5OTxxy0Ph9w//je3uL5l9bJmgoB6bK9AMz9N4R0ZbzUk3pvm4xZzLcmu+5wg0VjDRZV1IuTecTfWDbldGhpzIE2i6XYnaZ0fWueRsGjqmYWVh2AVKAccKILpstdOzapPOUe++tAUaLjsDABwGAs1sHAGjCyVWsOj7LoOOK9AsLHdyKjs1MwSacSgZqEVr+ld903LR7f0X/aHd0H+6MB4vrkfnp4PIMPbofBYmgaZ6TrtUOqfVY3MFGlcw6+czzY35mDPz2FPjzzJ3uR2aVYDp7y/aWPTlZI5A4/swvCPQZC5PmwaaV8NF2U/J7dDIcbqQoo6zpM6RQAMAOI4INLM5gkCj6vpwk/vMzq4CTWlnJPIt1KV+x6C3CiGZ3YJIjpUW4aPjrXYj+vvt57R9mXNS4WTuQFPcoVHPd1FL26zhcrJRUBkHEh1wina1Q5PCTOWyME+gSZeqzRVS1gk09ldXAwCwPwg0M6p/pmXOS84MuTZzBRrzkiyxaHUtnEsL9XIYGp1DKWzIOvOcnIHGcU7ati8502HFFWhc4ULOyXDsyWPX81YwR6DJXE424gkpiaftHJ+hMT+/sk6gsS8b01zBaNAWaPgMDQDgMBBo5pR2Ska7NOMvBeg/ZyPDxbCzI4PQuoEmF1yGvtNvSWtghpe46JWL1txCWDIW6sPit7xQVv28gWaysO4X5ePdnnXPaZt856TDS38/Pr7xc2DtupS+FGA1T+Nx0vj1oDL0V4FsYnlp1vQD7L6wknZxHLs0w+dvnvvh5+z6ju8yq/4yr0yIUJ+DSWEm7q6sE2iywWlpGN8RVKaXsBXwLWcAgANBoJnd8E1nS9NLwPpvLBNt9GVqrkCjjxMVdmG6MUVbz7ejKavF8kK3K9AvWseL2xRqxqahJ1ffGx0rmSzuS4FmNaYeq/+qZyPQiDZ9OzHmEehDSO2c1LnHOcrsLOl5GIc1HWgWhnmcBqHKc5Ms+ydG0F1eUmUvsnNfuTwOJdalaca3nEVdSBLtJl/bvAgr3edoagv5IWwMQSXKfYNZXzfdbXHtrGQ+izPttwpNK/ac9mFsxd4B4vMzAIDDQaDBjg0L8Nq/3O/UPp4Tcp+PmX5189z2ZTE/vUxNltd3btbn+3IEAAD2A4EGO0aggU+/OzMNNLnyWQ2fpTnSUDPszkwCTa58Lt2lZnx2BgBwOAg02DECDbzsS8msy8S2ogs1R/wZEutbzhbk5W3z6nenCDMAgENCoAEAAABwsAg0AAAAAA4WgQYAAADAwSLQAAAAADhYBBoAAAAAB4tAAwAAAOBgEWgAAAAAHCwCDQAAAICDRaDZgidueSj8/uG/Cb+/+0tm/dJNX+3bJV8/G56w2g3/2d1vzjxi1F0bXr479v9qeNmos1x88Z3w5uuXwmmj7ljq/oPEK+F5qw4AAAAHjUCzBa5Ac93Z8NtFm3dvMuqU589/ED68/3K4aNRFBxVobr8UXon/2/mLj4/Ku3Pa4v+A3s3hnoWa7nnLhlgAAAB4EGiOSBd6HIvZi2feqy7EDzLQvPWqCGiPh0td2fYCTdrl+vD89426o0GgAQAA2ByB5oi4FrPdpVIfhLdvNuqEgwo0D7/aHfvJxTksw8ui7JVnHg9Pvr7NQLPgnM9dIdAAAABsjkAzo+WlZoPf3nKj2S7yLGa73ZnCpWZJf9xCoIkhYtgBWdKBZrlzkqnvxoi7KqvdlOiVZ86t2nTOdcFkOU4kxxoCzen4s7vsLLZ/Kzx5e99vNN7kvOWuTqr3nNNKd+mZY05N3Wee4jzfGH769dXzPL20UNU//FD46XWp7kvh3WX51Oo1M4yhxp68bjzntGwzPnbp9QkAAHAoCDRb0S8cJwtG/SUAyvjzNP5LpEqB5vQzby0W+TEwrMomOzRdMPC06QOD3FkZ3bf6abFPVx9DyCKMxCDV3VeBJpaPPmczBKU1zmnk5ivrf5ZGPH/L53byWSjjue/6yVDTK4falkBTOadlm9U59K+Z6TkBAAAcGgLNVmQCjVDfofl+eNt5eVT+8zj9zoXesRiHDmNnJOp2bETIMYPCEDKWwUPfn+oC1nDseB6XXoyXm8VjZ85D6MOZ2KVxnZOyyWVnQzAYB8/xc20/F3040a+HOQNN6ZzMQNXwpRQAAAD7jECzFTMEmoaFdzbQ6FAyGAea8eVa2njnozZWajf0l+UDGWjG5zcNIt3Y4lx6OtA4zknaONCUdzW653Xx3Jtq4WSkJdBUdloINAAA4Bgj0GzFnuzQNASa0s5IpxQerN2Q7tjTEDIKNIocqw8z4+PZOzQN5xR1gea98Mb1Rl2NN9AUn9cVAg0AAMDmCDRbMUegmeFrhodQYV6StQwV9cvEOmZ4qF8mps+hFDZWdfY5+QJN5Zw2/gxNOTz0n00pfEGDQKABAADYHIFmK+YINIsFvuP/oFkufM1FbSa8xF0TuUvSBYNKMDHCQ7+LIgKGRfXzBZrhtjjHPsyo461xTs9v/C1nlfAwPPe15zbqw09+PP0a6e7rsQk0AADghCPQzGi54JyY/ou9J9Ckz3v85swjdn2nFGii8Wdk4k6JednXEGpGjNCTre9Yn8cxAkcp0CzHVGPF8u4cdKARbVK7VK9t8vmZyBVooiHUjNj99GtmHILH48S6yeWFBBoAAHDCEWj2nG+XZgeM3ZAj13ROM1zCBwAAgL1DoNl7w0L8qEPNgQea7lKzfQiGAAAAmBWB5iD0oaZ86dmWHXKg6S41I8wAAAAcRwQaAAAAAAeLQAMAAADgYBFoAAAAABwsAg0AAACAg0WgAQAAAHCwCDTHxMVvPGmWt5hjjJNi7rnKjdd6nF09h7XjyPpdndMu5B7LcXqMAAAcGgLNMaEXkDmyj6brdV9Ntt1X1nlrVr+a1E+PJek+Obk+ufKSlraJPE6O1UeXSbK+1taSjuth9U+s9harbyLrPbcBAMBuEWiOCc/iqrbo0vWl9rWx9k3uscWfFtlWk/W5tp4xEk+5Jtu1ssZrVRtH1q9zTKuPt6yFt39qp3/qegAAsHsEmi274fxiEXn+FrMuuebMN8PF++4O1xh1XnJBlVtc1RZdLYu0ad0t4eyi7J4zN6ny/VB6bJs87ng/R7bTcvW1fiWb9s3JtbfKI10nx7LItrLPumVe6/Qtna9mtZvV5y+Mj2n+Del/L1ftvhm+eJ1uAwDAYSPQbNN1d4d7qguIfsFx9vNWXdloMTPIlSd6jFz7XLk0Hmf/A03u/OVt675Vnm572lrW7Veyjb6yPHdbs9qV2lus9t6yJHfseF+W5dqlshKrn76/Fd3fltrfjZvCF+9bnGflH1Rm4TofAAC2g0CzRa6dl+5fWS+EG6y6BnIRlVtQ1RZatYVZuf/J2KFJUpv4M0f3kXLt089WeizN6iPl2sjy3G0pllvtcu1z0jgeVv9I1rXe1lKd/qlvW/e3wfW3xfUPKjMh0AAAjhCBZms8Oy/9v6BuGgLiAqq0wKqVJ7q+dn/s5ASaWr1H7pjxZ45sr5Xqa30jeRxNtrFuS7KPp32O1d5blui6dF//1PWaLLdue8eZU3cpq+sfSwg0AIDjj0CzLZ6dl5n+BTUuoBJ9X9N9pVQvf9as+k8DTfevyF07NQ/62n95ScxQN10YbRaYRscbyDrdVt6XrL4lsq+k69L9XHlJbFNq5xnDQ45jjZnKcnWabiNZ9d6yJFfXUq7LcvdluTWOW+l3Q5gr0HTjiOPZgWS4dG3ZbvX7vPodt+i/f/3v8KjNLi6HAwAcewSarfBdu+5alFTERYH+mW7L8tx9aZO+OnCkhY5eIPXlcqGj5yozd56AWFB7LOl+6TF62kS1+ki3yY3tPVb8WaL7SVZ7LbWTfdLtWl2urMQ7RmlcXZfu65+6PqdUnxuzRfV3Q4cdpf9dM0KDVPo9M3dZhvFGf6cWZfr3s7pD4/ubCADAOgg02+DaeekXCvkFgE9cpMif3ttSLE90een+2CrQ9P/qaz3+zGNWYaVf2Mn+my+GvI8t9xhluWzrkfpJuXbpp2wn70uyztvOUjtmui/LS2NadaX2ltjey+ofybrW27IsR7eTP9v5fjeSjXdoSuOK37P+d9nxDwnVQLP6+2DXAwCwPgLNFngWG9N/jW0nF0+52+m+Z6Fl9Us/LbJtWrCkOnNhMyx65BgrcuGlFj+ugFgWjyFvS7I+/SyptdlkDF2+abuoVBfVxkr3ZXlpTKuu1N7iHcNzHrpN7r5nrNz9XJmb+3ejt2mgSTuopuW4Df+QUA006pjs1AAAZkSgmV3mX1pH+oXCnP9aGRcJ1m3rfk6un9V/WrYKIf2/6hoLKceiJ5ELtm4htOYCKJ6nlsqttrrMItutO06ujS73jBXFdiVWn8Rqr6V2sk+6rVl1aRxNt0usOm9ZouvS/VyflnJvmVvD70Y0T6Cp/YPKvIFmqTuv4TVQewwAADgQaOaWuZRjpHvz32zHQZOLqXUXW7pNuu8bT+6qDAuhyTyonZeS5RzFsTabK9/522UW3a52X8vVW+W1sZJSu9bzqd3PlSWt7S3eMeY8j1xdLJd1pXFzY9Q1/G4sbBpoinWC6zhRYyDrOM8BAIAaAs2sfDsv3SJh5ksurAWXXlzVFlvWGPp2vkwvyPr7OtSky07qC58UipwLqkb6/NP96eOaqrVZt94q95xPVGrXej61+7mypLW9lms7x3mU1NrH+lybVN56TMn/uzFDoMn+o4MyBJXx36vF7/bk79fw+97wd823SwQAQB2BZk6unZf+jb/pXzId5EIq3s4trKy6dF+W69uWVN/TgWYhLYbUnKSF24i1EOoWZPPPVRTHtW5b97VcfSov9a/19ZZrVrtUVhsj1tfItvKnxaortddybWV5ul0aN9a1ssaJZL1uV7vfwvu7sXmgicQ/GgjT37f0jxNJJoQsf9+NdpM6VQ8AwAYINDPyLDK29a+ScYFg3fYq9bfGW+cYzboF2XYWPen8c4+j9PjWrcuZY7xcO0//Whtd39o+V2bxtota2nrkzjtXLn9quXIAADA/As1sPDsvvkvSsDD8i+42dmcAAABwfBBosFfkJTeEGQAAANQQaAAAAAAcLAINAAAAgINFoAEAAABwsAg0AAAAAA4WgQYAAADAwSLQAAAAADhYBBoAAAAAB4tAAwAAAOBgEWiwJc+GU6/9c/jaT1Zue3Da7uqn/jBq87UfvDFpg5XP/GAxR6+9E6426nAUHglv3P9B+M2ZR0TZ4+HSW++EV545J8q27OYr4cP7L4eLVh0AAMccgeYkeORyuOvnvwifvcOo2xLXwvvB9xch5g/h1G1G3cyOSxA40sdx2zvhnBE6u3PKBNaDc++d4blffis88bRRZ3j+/AdGkDiCQDMEK0INAOAkItCcBDsPNG+E2xwL3G4hvKMdGQLNDFKg+cn74TPL8v65PomB5uKZ98KHj10Jz0/qjiLQRN8Pbz+md4sAADj+CDQnwa4DzbDwLS9wh0vSCDRNjvRxxB21xbFPLc5h+dwuys499Ub3XJ6oQHP95fCbRXh4+2aj7sgCzUK89Oyx98Ib1xt1AAAcUwSa2V0In/3xu4sAkVwO1+o2XcAQbX78cvjUpD72+044Jdrd+t0L43Emx1oQY137kqqT9DFd9OdiMpeLzRVoljsCg9xCvrt0bdXu3FPPDnWr3QPLql1v8nmeHV0OV6QeW0fPQ22eujHirsp4PvTjtz73NBprCDRXx5/d8xbbxznq+43Gm5y33NURu3OjduvP99nL3wovLYKI9twPP7dq9/S94/rLp5d1N/7w0XHdyL3hbBpj0O3OZC/vmgaa08+8Fd5clL351qvjPg+/OpQPXnx8UnfpYdG+UwpMw6Vn579v1AEAcDwRaGY1BJBRWFiUvfSdZZtPffcXi0Ahd0tSKBHBZxl4Vu2m/YbA4gkms+zQ9Ivh6aI1LUKNxbA0LIynoUESC9rR2D1rdyKNJ8PT1U+9P1kYV3c2jOMdtf6xVebAM08iNMidFT1vrjnq6uNrYRFQYpDq7qtAE8tHQXV4bYixu2N157QKOn3ZOPh49GFGhI5hl0WGmT6wyGDyufDAlUU/EWo6rh2aWmgYB44UZnQw6ctlwDkXnnxdhhp9f9AFHRWMhHLYAgDg+CHQzKjfETF2ZJb6wDPZabnj5XDrovzUI8N9K4DoNikIibCUNUOg6RbXk8Wu8S/z0cY7NKVxxeJ9OM6knaG2WO/DQ/tiWnvilofC7x/+G9vdXzL72IwAuTB+HM55MsLLdP5Lz0dPvgbiedz2g3i5WTx25jwEPb9meHG9bjQrmOiy0+EJK6R0OzZq98UVaPrPqtiXm0WrQHPxxbjz8lZ48na7zWT3RYWVPvTI/pmQI3HZGQDghCHQzMYRMLpQYgWLvu8y6LgCzcJyJ6eyUzNDoOkXoBl6EbxxoClfKrYc19idyKkFmvExfWNulQ4lg/Hj2GyeJnMyBJ+OMVejUDs6v+lzab9eVKCZHMMOcTW5HZplKBnu25eTPRoeuHdoZ/W1FD8/E/VhJV1GNr1kbOH2S+EV0WZMBhh1eVnXzwpIAoEGAHDCEGhmcwSBRtX14Sb3mZ0ZAo2xyDXNFGiqC9tZA00ynNewCG/bLZhRQ6BZd566saz5H54/HULsXbqeHKu7rY5n7tBkAk3rnFuffxl9dsa16zLY1Q7NEGjMsKN0Y7x+KZxe3O52bEq7M1EXaKxvXwMA4Hgi0Myo/pmWOS85M+TazBBo9IK0aONAU6oTXMfp2QvoEuc5KLNdcmY+tuGclo/DeY5moOn7FsOQOodsABrV2efkCjTd8XwBdSVzOdlI32YUcnJcgablMzTDJWKTz7yonZeS5a5MHKuyO7PAZ2gAACcNgWZOaadktEsz/lKA/nM2MlwMOzsyCK0baHLBZeg7/Za0FsPlTZ5QsHGgWRguf6rtPnQL48luwPRLAfoFdctieb3Ln+aTCS/6OfDMkxFo+nmrBFTVzxdopmGln/vx8XSb5evLHH91Cdd0R8MXVtIuTn2Xph9v8mUBSv7/oIl0WEnnPw41uS8LmEqhaLVTY7eL+JYzAMDJQ6CZ3fBNZ0vTS8D6bywTbfRlaq5Ao48TFXZhujFFW8+3o00Mi84RIyTMEWiiYbE+YgSq1YK5l1vc94t4u52u0/VHYzzfcT67x6rnoDZPrnmsP7cytGjjgKLGiuXdOahAI9ssZOdbfN7EXPzrr2NOrtwZbhTtzK9mtoLL5DM3069tTp+jsf8TS2P3ZfkYxjssKdSMWJeUPZz7CmeFz88AAE4gAg1w3Kmdln0wDkAbyF0iNpS7LjNbU3mXZmZdoMl/VXOv/2yPHbIAADi+CDTAcXecA82wOzMJNLnyWQ2Xd2071Li+QGA4Fz47AwA4gQg0wHF3nAPNgv2//KuvY96aPkhsY1dEXo7mutSMMAMAOKEINAAAAAAOFoEGAAAAwMEi0AAAAAA4WAQaAAAAAAeLQAMAAADgYBFoAAAAABwsAg0AAACAg0WgAQAAAHCwCDTYkmfDqdf+OXztJyu3PThtd/VTfxi1+doP3pi0AQ7d8+c/CB+e/74q7/9TzrdvlmUAAKAVgeYkeORyuOvnvwifvcOo2xLX/wS/w//BfuP/mb47VxG8tKYg9ka4bTLGfv1P/sfRjT98NLz0y2+tXD5ttqv7XHjgir//xTPvhQ8fuxKeN+q6/+H/MUINAACbINCcBDsPNP2C3dqRkbqQsaMdmY0DzYjv8eVN+3fnR6jZmrOXY4i5N5yV5U/fG5774edG7XwaAk0XWN4Lb1xv1A2KgQcAAFQRaE6CXQea294J56oL/uGSNAJNzzVnWM/p8MQvv7VmeLF4A833w9uPfRB+c+YRo07qLz2bXpIGAAA8CDSzuxA+++N3FwEiuRyu1W26gCHa/Pjl8KlJfez3nXBKtLv1uxfG40yOtSDGuvYlVSfpY7roz8VkdhTmCjTDOMvj5QKJuhzs3FPPDnV9cJB10qpdb/J5nuyOSS3Q6OPqcTyBxp4fHcyWu1yjOTjanZ6X7/6b8Pu7vxQ+cdNXw+8fXtzuPBR+ep1qe93Z8Ntl/cLXz4YnRnVGn86XwruL9u/eZNVZ+kDj2lG5987wnLws7cqd4cZcnfLE02KcqNudce68OHZyAACAjUAzqyGAjMLCouyl7yzbfOq7v1gECrlbkkKJCD7LwLNqN+03BBZPMJllh6ZfhI9CwOgzMNMvARgZFuHT0CCJhbjx+RprlyWNJ8PB1U+9P1nQV3dojOPlFQLNEEzkPE3PUfdPc/d++MzQpynQLMZalQ39So91y7pAMwooN4affl0Fli7sjANL1y+1GcKOGVqKYce2+vzMo+GBe+028RI0Xd9dqiZDTce3Q9N9EcD9l8NFo26q383hszQAALQj0Myo3xExdmSW+sAz2Wm54+Vw66L81CPDfSuA6DYpCImwlDVDoOkW5ZNFcr941jsdm+/QlMYVocMIDzm1QNOHDhkoSvKBxj6Ofqx9/1WQk3W5Pj0z0KjjtT2WwWg3RZFBxGEUTAZP3PLQYqyvhpe7+33A+e0tNy7rO6OgMt6FWe76xHbduaaxGqgdlvElaH1ImVyW1vXRIcgTaPrLyOqXmyVcdgYAwLoINLNxBIwulFjBou+7DDquQLOw3Mmp7NTMEGiWOwEWvRjfONAYC35hOW7Drkot0IyPWRszF2gyQWxhHAjH/fu51cfccaCZUT3Q9GHFDE8LfYiRoSe1H/rHQNMYsrT+SwJkKBkuS8sYX07mCTTez88kBBoAANZFoJnNEQQaVdeHm9xndmYINMVAIMwUaKo7L7MGmmQ4ry7Y5B7DvIEm3R/PxfEPNJMdGmW5KxN3bhY/4/0YdrqxNgw0UX8ZWtp9afnigO3t0PjbAwCAhEAzo/pnWua85MyQazNDoGlaJM90yZldJ7iO02sKZJ3SOeQCTe44eqxp/35+ZTjbcaA5gkvOlpeQZXR9Fm3iz27XJp7jEGxqfT3Ggcb3uZiery2foQEAYDcINHNKOyWjXZrxlwL0n7OR4WLY2ZFBaN1AkwsuQ9/pt6S1GHYRPKFg40Cz0O2+1HdpugW92qWxvhRgGhhq+sdrHz8faKzznh7b6D/MmZwPM7zENtsINDOqB5qFIUAVd2m6S8seCr8d7ews7lufvymJn4OZhA/jm8+6LwXw7dKY/6+N1vLNZXzLGQAAayPQzG74prOl6SVg/TeWiTb6MjVXoNHHiQq7MN2Yoq3n29EmhlAzYoSEOQJNNISDESNQ9Qv4VZtcCFoGAqOdrtP1Y4VAE6VwsqTDhd2/PwfZdjzf8Xy6x3ocAk1k7QrJfsM3ncndmG7sRZn57WclQ1iRzOBitJt+y1k07NKIdpOvbR52Xeqfi+HzMwAAbOJEB5oHP/Fvw7/8xX8Xwl/8NyH8+UcX4k8AAAAAR2KxLv9//uK/DZf+zf9grt8tJzbQxDDz/1mTCAAAAOCIfTT8H1f9pbmO105soPl/F8nPnjwAAAAAR+2/LkKNtY7XTmygkZP1o3/zr8MNf3212Q4AAADAbnzlf/zr0TrdaqOd3EDTfW6m9z//9TVmGwAAAAC7tfpsOzs0RSnMRFY9AAAAgN1rXacTaJwTBQAAAGD7WtfpBBrnRO27i9940izHYas9r5s87+v2zfVbZ7xNzj+Z83y8amPL+m2ex67NMdfbmo91x63129b5emxy7FzfdcacYw7mPB+v2tiyfpvnsWtzzfVxmpNWu3jstWNscg7r9s31W2e8Tc4/al2nE2icE7XvNn3hJHGcGqsftqM23y3Ph25bu5+Ta9dyLonsE2/nyD5arr7WL5HHybH66DJJ1tfaWtJxPaz+idXeYvVNZL3ndk1L2xxrDG+ZpdSuNkasb2WNY2lpq+X6rjOm7BNv58g+Wq6+1i+Rx8mx+ugySdbX2lrScT2s/onV3mL1TWS957aHbh/vW2QbyWpbYo0xF+t4Sa59rryVNU5Uqotq9ZJuW7ufk2vXci6J7BNv58g+Uus6nUDjnKh9V3pRtNDj1O5je+JcS7k2VrlFt7X6esab41yi1vaW0hhzjJ9TG1vWr3MeVh9vWQtv/9RO/9T1Hi1tSzzn4D1Wrt0m57pJ32hb/VvH3fQ8otIYc4yfUxtb1q9zHlYfb1kLb//UTv/U9V6e/qUxW47Xem6tcuO3lpe0Pl4p18Yqt+i2Vl/PeHOcS9Ta3tK6TifQOCdqXTecX7xYz99i1iXXnPlmuHjf3eEao86r9CLUrHaJrq/dP3q3hLPd4/pm+OJ1Vv3hknOtb+ekNpquK7WtyfVtGXOT4ydxDEupXvaXrLZJrr1VHuk6OZZFtpV91i3zWqdv6Xw1q11ktc2x+kuyjW5f6p/GX4c1nqW17bqs8aJcXamP1tI2J52nVqqX/SWrbZJrb5VHuk6OZZFtZZ91y7zW6Vs6X81ql+h6q31pjNr4UkvbdeTGl+W5214tfUrHzUltNF1XaluT69sy5ibHl1rX6QQa50St5bq7wz3VhXa/ID/7eauuLL5ocmQb3Ufe1+QYOVa/Jp+/sBhnrgByPAONnGc957m60nMT61p4+9fqLLKu1K7G6pvKSnWWXJ0sz93WrHal9harvbcsyR073pdluXaprMTqp+9rtfoWcqzc7aOyyTms2zf2s9TqLLKu1K7G6pvKSnWWXJ0sz93WrHal9harvbcsyR073pdluXaprMTqp++nspxSH12WyH4lsu22yPFbb3u0tC8dJ1dXGj/WtfD2r9VZZF2pnUfrOp1A45yodbh2XrrF/YVwg1XnpF80pRdU7QVWa1/r7zJroDm+4lxrqVy2sW7XtLTVcn3XOZe5zyOVleosuTpZnrstxXKrXa59ThrHw+ofybrW21qq0z/1beu+VKrb1Dpjxz5arp1VXrJOn8Tq2zqe57F4x2w9tmT1TWWlOkuuTpbnbkux3GqXa5+TxvGw+keyrvW2lur0T33bum+x+lhkG6lUp7W0XYccv/W2xzrttVQu21i3a1raarm+65zLJucRta7TCTTOiWrn2Xm5KXzxvifDPWduMur89Ium9MKrvcBq7Wv9XQg0Lmmucz9Lt0u87XJy/VvPRbevkX1TH6vMKk91VnmU+llkG+u2JPt42udY7b1lia5L9/VPXa/Jcuu2d5yoVOcVx2hhjZHoenk/dzunNFaLXL/W8TzjeMbU7Wtk39THKrPKU51VHqV+FtnGui3JPp72OVZ7b1mi69J9/VPXa7Lcuu0dJ4n1nj6lcWrHkFrarkOO33q7JrZN7b39dHurf+52ibddTq5/67no9jWyb9K6TifQOCeqmWfnxXVJWp1+Mcj7pTpLrK+x+nl0nycyxuvInazl3PWBb9lm9FmkdKlZkptr3S4Zz3vu3EZhs3u+RP1k920VYrvduWXb9XbgYt/Sz9LtktiuxOojpTa6rbxfGyfWl9rU+kdWG1mm6z1jlpTGlmW5Ok23kax6b1mSq2sp12W5+7LcGieJdV5W/1a1cXS9vJ+7nWONZZFttFKbWl8ttdf95P3amLG+1KbWP7LayDJd7xmzpDS2LMvVabqNZNV7y0rtW8t1We6+LLfGkWJ9Istkm1xZovtarLbbkDuW53ZJatfaV/erjSNvl8R2JVYfKbXRbeX92jixvtSm1j9pXacTaJwT1WZYiFe+DKBbRG/hywBkma6vvZBq7Wv9XWo7NF19/wuxDBRDmLB2vPrwYIWGIcyI56Fva4UZ0X841ijMGOc8ff5EeFqW+14LljQHUq480WNoqU2urXcM2c4aszSO1V4r1SWxjUW3sW5Lsm9Oaif7pNu1ulxZiXeM0ri6Lt3XP3V9Tqk+N+a6djVOrNdknXU7R7fx9JFSe/mzRvbXdJt02yqzWO21Ul0S21h0G+u2JPvmpHayT7pdq8uVlXjHKI2r69J9/VPX55Tqc2Nqul2pX2ksWVfrWxpnDrljeW7nlNrX+sd6LVee6DG01CbX1juGbGeNWRrHaq+V6qTWdTqBxjlRTbb8ZQBa6YVWu1/T2t7FGWjGc9PPl3V5XjbQWCFoUmYFDl3W358ce/I8TwNUtG5wTXOf+1m6nVNrXxsj1uf6yfLcOJ42UakusdroMs/xSn3kfc9YkVVXam+J7b2s/pGsa70ty3J0O/lzU7saJ/c4SrdzSmPVeI7VOp7VXpfnxvS0iUp1idVGl3mOV+oj73vGiqy6UntLbO9l9Y9kXettWZaj28mfObqd/GlJ/TRZZ7Wr1c8pdyzPbYuut9qXxkh1uZ+l2zm19rUxYn2unyzPjeNpE5XqpNZ1OoHGOVEtPAvY/K7CetILRL9QavdT2br0WC6uQFMLhCvtOzTjtrkdmlXoETsvBt3OCl3riGNbPyWrLEe3rd2XYl2qz7WT5aWxklKbdfuvM6Yuz92X5bmxIquu1N7iHcNzHrpN7r5nrNz9XNm6amPFei+rf6Lr5f3c7ZzSWC1y/bznkNp5xvGOaZVH6/ZfZ0xdnrsvy3NjRVZdqb3FO4bnPHSb3H3PWLn7uTJJ1m86XmksXVYaZw65Y3lua1Zdrn2tXP+Ucn0tum3tvhTrUn2unSwvjZWU2nj6R63rdAKNc6L8+kXteHdBy/yL/4asF4ku876QUjv9cxY7CzTDTsvi3Fem4/b9x+3Gz403qMwfaDSrjfxZsmn/xDOOZ7xSm3X7rzNmLK9J7WSfdFuz6tI4mm6XWHXeskTXpfu5Pi3l3rIk1nnI9rL/umrjyGMnss66naPbePpYcv1ax7PapzL9s6TUZt3+64wZy2tSO9kn3dasujSOptslVp23LNF16X6uT0u5tyzRdbX7ubJE1sXbFqutpttuIo1jjSfLcsebs1yz2sifJZv2TzzjeMYrtfH0j1rX6QQa50S5dYvxys6L65K0NrkXWu2+RbbJ3d7IrgKN57loCKD1z8Ec7Q5N6flZt85SOo/cT8u6dYnVZp0xdXntfq4saW1v8Y4x53nk6mK5rCuNmxuj1a7G0fW59p7z8Y5Vs8k5SFb7VJb7aVm3LrHarDOmLq/dz5Ulre0t3jHmPI9cXSyXdaVxc2Noul1pTIusq/WtjVOqb9FyTE9Z0np+qb3+Kcmy0vjr1llK55H7aVm3TmpdpxNonBPl49t56S5xqi6O/fSLQ96PtzXZVrLqrfulMVyGS7qy8zRroKmN4wwh3Vi1dtsPNB5yDNnfkupKbTTdtnTM0rjr1iWxjcVqG+XqdHntfq4saW2v5drOcR4ltfaxPtcmlbceM2dX4+j6XHvP+XjHqtnkHCTP+aSy0tjr1iWxjcVqG+XqdHntfq4saW2v5drOcR4ltfaxPtcmlXuPqdtZ/UpjeY8T1dq2jJXTcv6tx1u3vfzpIceQ/S2prtRG021LxyyNu26d1LpOJ9A4J8rFtfPi2RHwK73Y9G3rfiqzylNdrjxX5zIEhCX5mSNPEBlC0WiMgQwU/edjym0m55Loz0FZ7UZtthNo9H1dLpXqpO7cjfE9Y8s2tfae8ayyUr+k1F/fL40X62pkW/nTYtWV2mu5trI83S6NG+taWeNEsl63q933yo2vxfoW1hhJqtc/c/VaLF+XNV5ktS2x+suf+raWGyex6lJZqV9S6q/vl8aLdTWyrfxpsepK7bVcW1mebpfGjXWtrHEiWa/b1e5brD4W2UYq1SWpzabj1HjH95yPZdP2nuN6jxHbWeN7xpZtau0941llpX5S6zqdQOOcKI9dfxmA90WxiV0cY1tyc92XD4Fp8gUAg9ou0pbpeY/3N30u0hi1cUptZHltnKjUxnOMOdTGa61fZ7xan8TbLmpp65E771y5/KnlymvW7ZdTG0/Wz/1Y1jXH8TyPSyq1ydXNcZ5SbbzW+nXGq/VJvO2ilrYeufPOlcufWq480fWlY1hq4yfeduuqja/r1zmflj7W8dY5ppTGqI1TaiPLa+NEpTaeY9S0rtMJNM6JqvPsvGznywBgm3x7mVU+7LpMnrdcOQAAALaqdZ1OoHFOFA6R9S1nC2oXrd+x0e38n+EBAADAfFrX6QQa50QBAAAA2L7WdTqBxjlRAAAAALavdZ1OoHFOFAAAAIDta12nE2icEwUAAABg+1rX6QQa50QBAAAA2L7WdTqBxjlRAAAAALavdZ1OoHFOFAAAAIDta12nE2icEwUAAABg+1rX6QQa50RtxcOvhjffemfl9Uvh9KTd4+GSbPPWW+HJ23Wbw/Py3X8Tfv/w4OtnwxNGmydueWjV5uGvhpeNNttw9VN/CF/7yT+v/OCNabsH3x+3ee2dcLVuc7A+Fx648q3w0i9Xnnjaancohsdz+bRRV3D95fCbx94Lb1xv1DW676GvhPd/dGHpVw/dMG13863hV6LN+393a7hPt8FMXggffyGEj72y8MKvw1+ZbQAAR6V1nU6gcU7U7G6/FF5ZBJRLDxt1S+fCk68vQsyLjxt1M3Odzzz6oJICyo3hp19fBJa7vzRud9NXF20eCj8d/rf+LgBlgs+suqDyh3DqNqMuue2dcG4RYm570Kibm+d8Znb28mLxf+XOcKNRN5/T4QkRmFYeDQ/ca7XfxDqB5vvh7cc+CL8584hR1+Zvvx0Dyl3hb426pXN3dSHmZ+eMurl1xyqcjw5WyTEKWFc9TZABgH3Wuk4n0Dgnam6nn3krsyMjdCFjRzsyOww0XTgRAcYKK13oEWXjELQ9n/lBZkdG6HZwdrUjs/NA0weN7e/I9Md57oefM+rm1hpoHglv3P9B+PD89426RkM4KAeVG8Krf7cIDN/+glE3v263qBROaoHn4P00/OUrIfzll606AMA+aF2nE2icEzW3iy/mLjETukvSjmmgWYaVL4V34yVlaofG3MXZ+g7Ns+HUa/VA04We4xpo7r0zPHfCA83FM++FDx+7Ep436pp14eAr4dWbjbqlL4SfLUKPeRna7OrhqdtR2qfdmEcuh7t+/ovw2TuMurUQaABg37Wu0wk0zoly05+LyVwuNleg6cYRx7MDyXDp2rLdq+HiUNftFIn+Y6t2Pf15noV1LofrLif7m/Dbu78afpv7fMx1Z/u6RZsu8IjLz9bRhRDxmRf7crG5As0wzvJ4mUAyXLq2bCeOq893RB9bf55nYe3L4RyB5sYfPjq+TEwHhafvXZTfG87qz+KM2nkDzfTSNPPchvO2j9WfRzzW6NzNy+r63ZnqpWaTy7LsHY3qbkjUjVUOPfozOLlA0l/etrLcGRouactZ7SA5dovE+Y6Ot8UQdO1L7y5Czbvh1CN2fRsCDQDsu9Z1OoHGOVEefTiQIUB9BkaHHaUPI0ZokJYBwvh8jbnLMow3Ck+LMh1Eqjs0836eJ30pwG9vudGsj5ZfCqA/X9PECCnqMzCTLwEYGcKIERqkVYB4I9y2uH/uqWdXx7N2WYbxdLtJELH6SrN8nkcFD00s/LvP13RhJfUdAocMB12g6fsuA8skKHkCTTwveawUptTnbIbjjcZalK2OJR7fMugM563DWPdFAB+Et6vhYhxARrsalfDQ78T0uzJWfWcZDoaAMQoLxo5OClijILJop0NG9RI4x27RcEnaz+JjTserjru5T333F12oueul75j1fgQaANh3ret0Ao1zour64DAJBF2I0TsdM+zQlMYVoaPfwZm2m6gGmv7xvfLMOaOuxXD52MMPhd/Ky8iGHZl3b+rb9YFnaLPcwekvTyuFoIkuELwfPqPK7c/KbL5DY3++ph93FV760FM7TqcWaGr1rUo7NLm6LlCIkDEEjHE7HWCmOy+9cYCZyASjSTAZGQKNamN++cHNV8qXm5m7KUM4mexqOMLBQukSL3OHZwhMTbsqyRBGmr8QQIy93C3S4WlR1hRoukvJ+p2XiR+/HD5l9bnj5XBrqd7jy/8UPvbKP4WrrDoAwF5oXacTaJwTVTUEAnNXxQglmwaa4qViy3EbdlUcn6EZHXPNnZp+12W4fGx5WdmXhttD+XBJWh9uhs/YdMGnv51Cj0dx9yUTPDYJNMVLxdK4Lbsq1cAyvrxts52ahVKg6YKKFTj6ULHsowOOSQecjCEcactjlc53yR9oap+fmVz6NTBDi2vXohRGhjp1rMlncrqQUr5kLTEDklQLPAvWDlXLOWzuO+FUF3waP1fTBZkQPvb0T+16AMDeaF2nE2icE1XlCATSPIGmtvMyb6BZ6s5rCDa1x6BMvtEsfZ7m66svAZh8o9kQfPo2bZ+l6QPNdIfGNlOgydQtzRpoVmSYGl3K1mKfAs0QZkZt9PnNHGjKOzQNOyGRa5Ff2MVxXsbVBwzPt5LVz7/+hQD2GP5z2NBsOzT/Ej5+yqgDAOyF1nU6gcY5UXVtl2TNc8lZpk5wHSdqDGQd5zlI1lc068/TWF/RvPbnaZouyZrpkrNqgDI+Z5OzxiVlrlCVUwoIuTodYGYKNP3nZVSAmpyDZ6enIdAUP0PTFmiquyGReQmbrJsz0NQugfM8PnuMehAytF5yltrzGRoAOPZa1+kEGudEeaRLsjyhYONAk3Zfars06VK40S6N8aUAQyBruZTMt0ukpB0Z8TmYZVhJIUZeiqb6tX/bWboky7NLs3mgWX4+phIo0qVwo12aRXiZ7NoMuzn+HZfCY0ivhVIILe54pA/Xy5DRB4pRWJh1h0aMM5zb6JKzhfTNZaNzXvRd3W8INJX/g8a83MrkCz/lMDKM4QpFKmQsyn42CS61c3J85scMWf24xX4b4lvOAOBkaV2nE2icE+VlfrbFCAmbB5oohZqxaaAawspSJoQsF7xGu0mdqm+xDCeD5Wdo4n0VahLxGZr1Q83Y9JKvOQJNNISaEWOXpdt9EW1yx9XtxLHNzwjlxuleT/F5WzfQ9LogMASLySVhUUOgkeP0xv3Gx4p1fb/J+XXHFG1H4aUl0Cx+N7vP0bwX3rh+XJ6Mvqo4mYQERzhYqO9s9OPo4012bbrL20Sb3JhDIDHbeXaErM/YePptgv+HBgBOnNZ1OoHGOVEAToryLo2La5Hv28XB3Ag0ALDvWtfpBBrnRAE4QYbP0qwXaoZdlcqlYv1Oz66+GQwrL4SPvxDCx174dfgrsx4AcNRa1+kEGudEAThhulCTv/RsQl72VfmcSt9uB98Khox+l6b7GmeCDQDsndZ1OoHGOVEAAAAAtq91nU6gcU4UAAAAgO1rXacTaJwTBQAAAGD7WtfpBBrnRAEAAADYvtZ1OoHGOVE1+zhPwK5dfep+HCDruQQA4Ki0rtMJNM6JqiHQAASaQ2U9lwAAHJXWdTqBxjlRNQQagEBzqKznEgCAo9K6TifQOCeqhkADEGgOlfVcAgBwVFrX6QQa50TV7HugeeKWh8LvH/6b8Pu7v2TWL9301b5d8vWz4QmrndObVz4SwpVPmHVuD78a3nzrnZXXL4XTk3aPh0uyzVtvhSdv122OsevOht8unq/f3nKjXb8j1mJ5N74dnv4v/XP/wn+y6o/K6rwS6/zueO7nozZv/uiFSZttWj2Hnw7/8OuPhN99b/y8bqYfM/zjwq8/Hp4z2wAAsNK6TifQOCeq5lgEmmFR/O5NRt0annvto4tFzJ+GN406t9svhVcWC7xLDxt1S+fCk68vFoEvPm7Uzax6PjpYJVsOWMc40Dz8o8X8/ZdXwh1G3cquAs0L4YXJcxv9PDz9tWl717n/pzez/eeWO5/R8/i9P+3Cx1yhpvtHDYIMAKBB6zqdQOOcqJp9DzQeXejZcEdmqVsUfTT8w4NGXYPTz7yV2ZERupCxox0ZZ6B55ZlzRt0WnfhAsyt9oHn1uW8bdVrfthawuse3ox0ZV6BZmOUfIzqfCL+bMRwBAE6G1nU6gcY5UTXHIdC8fPfml5j1+kXMH1/7tFHX5uKLiwVYLdB0l6QRaAg0u9AQaL72Sni1GmiGnaU9CzTLy8Q2vVyUQAMAWEPrOp1A45yomn0NNMtLzQalBe9sgabbnan8667+XEzmcrG5Ak03jjieHUiGS9eW7V4NF4e6bqdI9B9btXMFmuWOkjreRpfMfSm8u0+BpruMSjy2t94MD4sFdK7dKijkLu3qrdrpz6gYl27lLukaAsconAxly/Emi/8jCDTVcxpsMJfWcznPLiuBBgDQrnWdTqBxTlTN/u/QZBa8+ksAlHU+T1O7Zr4PBzIEqM/A6LCj9GEk91mVwTIcGJ+vMXdZhvFG4WlRpkPGHDs0wxjxPJfjDI85P27NHgWauAAfLdCHRbtaiKcPwssF/x3PvTkJHu4dmuxnUYYFvQoN/fFF0DL6T49dCzQ6YCnDWJMvARgR5+A6p83n0nou5wkjBBoAQLvWdTqBxjlRNQcbaIR5dmj6S1Xyl5v1C/7Jwr1b0MuQ09t4h6Y0rggr/Q7OtN2EM9BMFqnyMRQC1fqXqvXPrxVA9S7dSPqSiFKwbXhNyEWyNAkP1u5IxuaBxjj+ZGekvz85n+485Zi53Q5jB2rjHRrnOc0wl9ZzOctlZ57dWgAAlNZ1OoHGOVE1BJqk8vkZsTsxNQ0lmwaa4qViy3EbviVtxh2aXQWaXRotnOMcj5R3Q3LmCDSTcOEOKr1VKKnt0AgbBxrnOc0wl9ZzuVGgGb4pbfPP4AAATqLWdTqBxjlRNQSapLJDUw0EY/MEmtrOC4FmLstFs1pgey7vypkl0Cx04wzBoTuf0ZjeoLL7QFM91pYDzUZf7jHTtx0CAE6W1nU6gcY5UTUEmpXyZ2jaFu7zXHKWqRNcx4n2NtDk7faSM3uBnrvkrLzY780VaPr6eA79OY6PXQoW0i4DjfOcZphL67nkMzQAgKPSuk4n0DgnqoZAI1T+VTZdBubZpdk40Cy/uayySzOEjPEuzSJkTHZt+uCR3805okCTAknpP07dAWvR3IeZ+ByMP2fStZvs5Ew/yN73d+xAVHcq+jDywnMxAIzPpdP1r4WVXQaaBdc5bT6X1nPJt5wBAI5K6zqdQOOcqJp9DTRdSJH/2r701fCy1XaOQDMsYkrXz5ufbTFCwuaBJkqhZmwaqIawspQJQSn8mO0INGnRv5yfGG6WuyPjhfQq7PRyC/d+wW61U8eSjJCQjpcNCEOAGBntaOSOZwSpOQJNVD2n3iZzOX0uZ/hCgA6BBgDQrnWdTqBxTlTN/u/Q7BjXzp9I1gIa+08/j8+99tHF7+8c305GoAEAtGtdpxNonBNVQ6CZ6j5LQ6g5UazFMvbf6HkcvqFsnhAy7PQU/l8qAAC01nU6gcY5UTUEGlsXavjq1hPDWixj/62ewz6AzLujMlyCGhFsAAAOret0Ao1zomoINACB5lBZzyUAAEeldZ1OoHFOVA2BBiDQHCrruQQA4Ki0rtMJNM6JqiHQAASaQ2U9lwAAHJXWdTqBxjlRNQQagEBzqKznEgCAo9K6TifQOCeqZh/niZAFAACAQ9O6TifQOCeqhkADAAAAbK51nU6gcU5UDYEGAAAA2FzrOp1A45yoGgINAAAAsLnWdTqBxjlRNQSaLXrw/fC1n/zzymvvhKsn7d4It8k2P/lDOHWbboNj5947w3O//FZ44mmjruTmK+HDx66E5606t8fDpbfeCW8uvRWevF23OReefF22eSdceli3OTzPn/8g/ObMI2YdAACbal2nE2icE1VDoNmS294J5xYB5bYHjbqlZ8Op1xYh5gdvGHUzc51PyXCuo/AltQWxz/xgOsa5p5412x5L6wSa6y+H3zz2QXj7ZqPObQgqLz5u1K1cfHHR5vVL4bRRN6/a+UyD1UYBa5hDQg0AYBta1+kEGudE1RBotuPqp/6Q2ZERupCxox2ZjQPNmOvxFXSBRga5YTfrxISa5kDz/fD2HAvx2y+FV8wdGanfwdnNjowz0FQCWJNul+u98Mb1Rh0AABtoXacTaJwTVUOg2Y5uwV5b8HeLeAJNb4e7VfugMdDES6U+vP9yuGjUNXn41WBfYiZ0oecYB5qF2eYTAAChdZ1OoHFOVA2BppH+XExmAT5XoNGXZtmBRF8O9n74zFDXBQ/Rf2zVrqc/z7OQeXy1QDM5rhrHE2isOezHFefdzWG8Pz739p2ez4UHrnwrPPfDz4Ubf/hoeGkRNnr3hrOi3dnLi7Ird4YbRVnfftzuE588HZ5YjjG4fHpV3wWaR8MD9/bHTW3i8VdjJP3uTPFSsyGELC/Jyl0uNleg6cYRx8sEju7StWU7cVx9vsrq2J5A07d55Zlz4fQzb4lxXs0Hllku3wMAYKx1nU6gcU5UDYHGb7KY1otwHXaUPowYoUFaLuiNHQtzl2UYb7TwX5SNwsJCdYembYekFGj6ECbnaXqOOtCkACTPzx9o4vFWwbBv07rzJYLFMrAMZSLA+ALN0E8GGG3YoYnHW+7SPH3v+H5Su0TKCCnjz8DoLwFQurAwBAerPhIBqQ8NMixYoSONp9q9qIOW1belPkrHku2Gx5zt90h4434+SwMAmFfrOp1A45yoGgKNV78onwSC5Q7BuNxajE+UdmhK44ogMA0PGdVA0z8+785GNtDkjqMea3/ekm8O7UCj5nCty+um4aXThYy4k9Lf9wWafnfG3m0ZmJec2f0unnmvcHlUv5iPuxOj8txnZYzwM1Hcocl8vqYbdxVe+tBTOU7HGWhiOBmpBar6Fxtw2RkAYG6t63QCjXOiagg0TsMiebwIT6ahZNNAk3YsTMtxG3ZVHIv80TErY2YDTSaI6UA4CmZdn2mYOpJAo3dVVPDwXnI2umzN2qlpCDTlhXd598UOHhsEmuKlYqtx/d+S5gw02fqIQAMA2A+t63QCjXOiagg0To2L5HkCTW3nZd5AszQEjHF4Gps10KT7qt/+BJrWHRphuIysI/vNtkPTB5rJDk3OTIHG3r1ZOZhAc/77Zh0AAOtoXacTaJwTVUOg8Wq7JGvTQFOsE1zHidZZ5BfOIRtocsdRY+lAk/rJ+d2LQNMFklVYaQ40ibp0rSXQlD9D41nwC5sGGmeAmn7OJueoAg2foQEAzK91nU6gcU5UDYHGr19M+xbKGweatPtS26UZFu/jXZpF+Jrs2vSBzLWbM5iEB11nPj7rvKfHngQao58+fpr/0dhNgWZ1edZ0sW4EmiF0yIChw8vq0rJyoJmEnpZAU/s/aLqQ4tyl2TjQpLBS26UZ5noUKBbBY/KlAEPwyIafLQUavuUMALAFret0Ao1zomoING1Wi2rBCAmbB5ooLfLHpgv1ITAs2SFkGX6sdpM6Va/kA02ve/xiLPPzMXreuvmQj089/ti+a7NmoBGf/8gGmi6crIwDh9EuBiC1i5PCihxnEniaAs1wedRjV8LzqnxpCDUj1mJ+hkATjb8eeTAJHUPQWLbJHVe3k8feTqDp5pPPzwAAZta6TifQOCeqhkADRJlLzvZGZZcGfrWvwQYAYE2t63QCjXOiagg0QLTvgWahW4gTajYyXGrGHAIAtqF1nU6gcU5UDYEGiA4g0ERdqClceoaieKkZYQYAsC2t63QCjXOiagg0AAAAwOZa1+kEGudE1RBoAAAAgM21rtMJNM6JqiHQAAAAAJtrXacTaJwTVUOgAQAAADbXuk4n0DgnqobwAAAAAGyudZ1OoHFOVA2BBgAAANhc6zqdQOOcqBoCDQAAALC51nU6gcY5UTUEGgAAAGBzret0Ao1zomr2NtB8709D+MePdH73PaMeAAAA2COt63QCjXOiavZ+h6YLNh8N//CgUQcAAADsidZ1OoHGOVE1ex9oPvnp8A+//kj442ufNuoAAACA/dC6TifQOCeqhkADAAAAbK51nU6gcU5UDYEGAAAA2FzrOp1A45yoGgINAAAAsLnWdTqBxjlRNfsfaK4Nz7320RD+8U/Dm0YdAAAAsA9a1+kEGudE1RxCoOk8+PHwx/g1zr/+eHjOqgcAAACOUOs6nUDjnKiaQwg0b14hyAAAAGC/ta7TCTTOiarZ/0DDZ2gAAACw/1rX6QQa50TVEGgAAACAzbWu0wk0zomqIdAAAAAAm2tdpxNonBNVQ6ABAAAANte6TifQOCeqZu8DzfDtZr/7nlEHAAAA7InWdTqBxjlRNXsbaL73pyHEr2leYHcGAAAA+651nU6gcU5Uzd7v0AAAAAAHoHWdTqBxTlQNgQYAAADYXOs6nUDjnKgaAg0AAACwudZ1OoHGOVEAAAAAtq91nU6gcU4UAAAAgO1rXacTaJwTBQAAAGD7WtfpBBrnRAEAAADYvtZ1OoHGOVEuX/6n8LFXQucvv2zUD54//0H4zZlHzDoAAADgJGtdpxNonBPVpAs2/xI+fsqoi66/HH7zGKEGAAAA0FrX6QQa50S1eSF8/IUQ/uzRF4y6wc1XwoePvRfeuN6oAwAAAE6o1nU6gcY5UW0cgWYhXnr24f2Xw0WjDgAAADiJWtfpBBrnRLXxBZp06dnbNxt1AAAAwAnUuk4n0Dgnqo0z0HzykfDG/XyWBgAAAEha1+kEGudEtfqrR/8lfOyVfwpXGXUSl50BAAAAK63rdAKNc6LWcurX4c/i1zi/8OvwV1b9AoEGAAAAWGldpxNonBPV6qqny0Em6QLN+e+bdQAAAMBJ07pOJ9A4J6oNn6EBAAAA1tG6TifQOCeqDd9yBgAAAKyjdZ1OoHFOVBv+HxoAAABgHa3rdAKNc6LaOALNzVfCh4+9F9643qgDAAAATqjWdTqBxjlRTYZvN/vLLxt10XCpGZ+dAQAAAMZa1+kEGudEuXz5n8LH4tc0L5R2Z+KlZoQZAAAAYKp1nU6gcU4UAAAAgO1rXacTaJwTBQAAAGD7WtfpBBrnRAEAAADYvtZ1OoHGOVEAAAAAtq91nf6Rf3/j6VASA83/YpQfpRhoPnvTLWadl5woqx4AAADA7rWu0wk0zonalvP33G+W55Tat4xVa9t6XgAAAMAcWtfpBBrnRM1FB4XW4FBqf5RjAQAAAHNoXacTaJwTNRcrKHjDQ2wnWfW6rCTXvnUcAAAAYC6t63QCjXOi5rBpgKi189SvyxoPc7oz3NHN9dfDLV+w6o/Wjbd/fXFuXwn/wajbzG3hlvOLx33nnUYdAAA4iVrX6UcYaIYF3PkvhxsndcMiJ7OAOvJA84UvhzvFYn/MXpDGOl0mrVu/Ou6U1f7gdHNtzOnwHNxxWpUfrHqg+Q93LurN3xfh9FeKY6yLQAMAAHaldZ1+tDs03eLr/nDn7beZ5bnF6r7u0OQWfd5wkWuXyuNPSdaVbmupv5RrZ5Xv1IkJNHUEGgAAcBK0rtOP+JIzayemvsDZz0DT/wu7DmetoaDWXtfL+7nb2hxj7AyBZolAAwAAToLWdfrRf4ZmWJgug0BmQdYvqGL4uT/cd/8D4X+7a7wAshZ7pUVY60TVWMfS4aAktdP9tFLb3G1tjjF2xhlouuc/LoqH3b1eZmE/amPsEC6D9ooMTt1zvXit/Yf0moyvu+F8lq+B7hiL28tjxXLrsrJUlujXq64fS+fePX6jvqND0PJcM/VWm44+Nyc91ii89HMdH4f8HTfPST1vk/NJc67mbPr85uZUvV708azQNTmnkxWyAQDYhtZ1+l58KUC/GIsLEftfa1f1/f3/ePrL4ez/fmG06DnaQDMskBz/yhwXPJ4ySS6WpFQn21m3tdRfknXW7XXJRep0YenQLYadgSYeZ/kaGF5L5mtCB5SvTAOGfC6HRWs6/+Vjim2G87vz/Goh3bVLC93u+LE8tomPI78jUXq9RtZrfKI7bibIZeon4w7nPglxhXPLUnOXylZji/C4nBPjOYjzPJoz4/kdjiUfX3/e8vFOx562sR6v8byp1yAAAJhH6zp9LwJNWmTEBd9k0WQsGrpLzm7930eLkCMNNMYiMScuuDxlObptv4CzyXaSrpP3c7fXslxgrjQv/obAMJlb9bpwPf9Dn1Kwyr1m5PijBfBozGmg6c9PLqKPMtD0x548/tEc2+dXOzebEUwm7ON5HuvknKzHrl4nk/tmWX/eozZRN37leAAAYGOt6/Q9CTRpcWIstvQiYqH/DM140XF0gSa/QLXEx+gpy9Ft5f3cbW2OMTzScyqVwoRptNjW5Y3Pv2MB2o1jPZfidTgad3QeOtCkY4nyIw00Q8DIkI9BL+Zr52aywsOEP9B0ZeJ8e5XnNxNW5PEmj23oMz1WJMcfzn2oKz9OAADg1bpO35tA0y8ijIWYWEimsr0KNMUF5Fhc9LSUW0ptvePEdpqss26vpZub8XGaF32514VaqLqef8dz1Y1zzANNOVSOf6+S2rmZ1HNk8wWa7r56XK7nd3IO4xDSq/Wp68+vV55fAABQ07pO3/9AYywu9ueSs2FxVFtkDuJip6Xcktpafbzj6Ha5ft7xSvrnYIOFXm5xKQJGvO96/h0L1dxrRo4/ajMac98DTf7YK3bo6Rfs+XOzeQKUJ9DYbSbz5Qk06nVj85y3zfUcAQCAotZ1+v4HmrSYEYuQ5ZcCiAWOXtz098f9lhbHap0oU7c4Ki+Qk1I4KNVp/WPaLIDodpuOt23TRWK/4JTPv7WQtAJCvzAfv85GXwowLIBHi2f1PI/G3WGg6etzYWUwnE92MT48ltJivZ+j1Xn098dlXun3cPQ7sjiH1X1PoJneT+OOzmk054PR85NpYzDPuyr/3AIAAL/WdfoBBJrealHVf23z3f/r7apNCj6DuKjoFi/WIuzO5omaGo7n+NfYeD65MquupNTeO5Y+tu6XKz9K8vmP9IJcL3ijXEBYLYbtsZaBaWn8uhyNu2mgGfrL80ms0FGbh053bNFOv0Z1/aTN+Hdp9XjaA01HH2+04LdDwPT5VM9JrNPn1N2vBJoFPYeJnkv9OumI86zVAwCA9bSu0/cn0DTYz/9Y0xYXOVZ5VKpbh3c82S7XZ+5zA/ZBOeTWd24AAMD2ta7TT2igmWOHBsCh6XdnpoEmVw4AAHavdZ1+4gJNutykdaIAHAfq0tREX5YHAACOTOs6nUvOnBMFAAAAYPta1+kEGudEAQAAANi+1nU6gcY5UQAAAAC2r3WdTqBxThQAAACA7Wtdp3/kE5+8NpTEQPPJf/fvzbqjEgPNp675jFnnJSfKqgcAAACwe63rdAKNc6L23cVvPNlUXrJOn03Ujifrd31u25R7LPs2/9Jxmv+5leYm1klWGwAA0GtdpxNonBO173KLpHUWT7JPWoBZZB9P+8Tqo8skWV9ra0nH9bD6J1Z7i9U3kfWe25vQ48T7kq6T93O87XLk8UusvonVVpdJun+tfYk1VpLqdZ9EtwcAALbWdTqBxjlR+y63YGpdSB3Fwqt2TFm/zvlZfbxlLbz9Uzv9U9fPQY5l3Y4/tdTGYrVPrPY16/STfdLt3Die8a02nn6SbL/OeLHeUqpL9FgAABy61nU6gcY5Ueu64fxi0XH+FrMuuebMN8PF++4O1xh1XrmFTcuCZ67FUVpoWXLtrfJI18mxLLKt7LNumdc6fUvnq1ntPGTf3G2vUp91z3GT85B9c+N4xrfaePoluu3c42ktYwEAcIha1+kEGudEreW6u8M93/hm+OJ1Rt3SLeHsYoFy9vNWXVlc2FhqdRZZV2rnkeufO0bpeFa7UnuL1d5bluSOHe/Lsly7VFZi9dP3NyHHaj1e6TxKdTXr9E19ZN94Oye1ybHarFOWbsefHqmfVqqLavUAABy61nU6gcY5Uetw7bx8/sJigXIh3GDVNcgtcmS5dyG06YKp9VxK7a12ufY5aRwPq38k61pva6lO/9S3rfubiGNJslz+1GQfD2uMnNb2kXWc3Die8dN4SSrTbeR9S65vriyn1LZlHAAADlXrOp1A45yodp6dl5vCF+97Mtxz5iajrk1uoSPLPYsh3b5G9vX0k22s25Ls42mfY7X3liW6Lt3XP3W9Jsut295xamK/RJbJNqlM0/Xyp1VXK0tiXavcOPKnvi3lyhNd3zK2ZLWPP3NSW0upvtYXAIDjoHWdTqBxTlQzz86L65I0n7TQ0Qseeb+2GIr1pTa1/i1q55XKcnWabiNZ9d6yJFfXUq7LcvdluTVOC2tMyzr13rIc2XbTfvFnTmpr0fXpvv5ZEtvIdrW+pXJN90tlug4AgOOkdZ1OoHFOVJt+56X2ZQDdFwZs+GUAiV4AWQuf0iLIaq+V6pLYpia1k33S7VpdrqzEO0ZpXF2X7uufuj6nVJ8bcx1yLM1ql2PVe8tyZNtN+5XGyo1d6ht/5vpJtTFSmVQb16q3xqyNAwDAoWpdpxNonBPVZMtfBqDFhU1uEeRZAHnaRKW6RLfJ3ZflpXGtulJ7S2zvZfWPZF3rbVmWo9vJn5uQ48vxZJmW2khWuxyrv0W23bRfbqzcuLo83vf0y7H6pjEtqa1F18v7pToAAI6L1nU6gcY5US08Oy/dFwZs+GUAcTGTFjS5hY0s9yx+Sm3W6Z+7L8tL41p1pfYW7xie89Btcvc9Y+Xu58rWIcfJ3bbua7n2reMk6/aLYtvUXv+02njJ9nP0zY1RG9say3sfAIDjoHWdTqBxTpTfbr8MILEWNqlM/ywptfH2r0ntZJ90W7Pq0jiabpdYdd6yRNel+7k+LeXesnXIceJtKdeuRrZt6SfNcfzSebSMF3n6l8aUdel2/JmT2lpK9bW+AAAcB63rdAKNc6LcdvxlAIm10ElluZ+WdesS3aZ2P1eWtLa3eMeY8zxydbFc1pXGzY3RIncsPbb3WOv2k6w+3rJceUt/i27bOl6qk21y7UvjRLE+sep0GQAAx03rOp1A45woH9/OS3dJWuULA1rphU5pMVRaFK1bl+g2tfu5sqS1vZZrO8d5lNTax/pcm1ReHqPfCbxYCMa+cfyscXJjz1G+TltdlxtDKo1XK0tSnWyTa58bO9F1Uq0eAIDjoHWdTqBxTpTLjr8MIEoLHLnQKS16Yl2tPldW6pek8UtkW/nTYtWV2mu5trI83S6NG+taWeNEsl63q91fGb5JL45lhGNrHC/ZT/bftDzXNon1Wq6dVVZq3zJWkvpJVrvIqpf9NNlOtrfKJU8bAAAOXes6nUDjnCiPXX0ZgCYXOZsuinJ13oVUrZ2ub22fK7N420UtbT1y550rlz+1XHl/eeO8n8XS4vjZ4w9SG023kfc3YY21zvhHdU6bHHfOcwYAYF+1rtMJNM6JqjuaLwPASZV2aOYNxwAAAEetdZ1OoHFOFLAv+l2+RZiZ6T9lBQAA2Cet63QCjXOiAAAAAGxf6zqdQOOcKAAAAADb17pOJ9A4JwoAAADA9rWu0wk0zokCAAAAsH2t63QCjXOiAAAAAGxf6zqdQOOcKAAAAADb17pOJ9A4JwoAAADA9rWu0wk0zokCAAAAsH2t63QCjXOituLB98PXfvLPK6+9E66etHsj3Cbb/OQP4dRtug127ul7w0u//NbKlTvDjVa7Q9E9nkfDA/cadQXPn/8gfHj++2Zdmy+En/3oQnh/6a7wt0a7v/22bHMh/OzctA3mceMPHx2/xi+fnrY76N+DF8LHXwjhzx59YVx+6tfhz175p3CVLJt4JLxx/wfh7ZutOgDAplrX6QQa50TN7rZ3wrlFQLntQaNu6dlw6rVFiPnBG0bdzFznUzKc6yh8SW1B7Oqn/jAdYxfz4HHvneG5xeLtiaeNuhlNFpSJtbDc1BqB5uKZ98KHj10Jzxt1TW6+NfxqEU5+9dANdn3nhvDq3y1CzN/dGu4z6+fUH6t8Psec5/Wwo9+DzpqBu+Sqp0P42Au/Dn+Vq6uFmpuvLF7/hBoA2IbWdTqBxjlRc+sW7OaOjNCFjB3tyGwcaMZcj69g0n84v30INV3Q2MG/RPeB5t5w1qibXeuCsVvMvRfeuN6oa9TtutSCyrm7wvs/+kp4dSeLx3636CTv/py9XA/Ou/o96MwcaP7q0X+pBJZ+9+ZjT//UqFuZLdQDAEZa1+kEGudEze0zP1gszmsL/u6SNAJNKnPN2Q50i70THWi+H95+7IPwmzOPGHWthp2Xb3/BqFu576GvZC9Dm91Ow1PFHS+HW3/+bjj1iFG3NZ8LD1ypB5pd/R505gw03SVlIfzll406ydWuv/RsnssuAQBJ6zqdQOOcKDf9uZjMjsJcgaYbRxzPDiT6crD3w2eGui44iP5jq3Y9/XmehczjqwWayXHVOK5AY82PDmbLXS41Bxvs9NQXcqfDE6PLxPRCrF8wPvfDzw0LNbudO9CMxojsPt15Z47VjxH7jc/dvJyo252p/6u0/ryLfQmXbzekG6sYevRncDKBZLi8bdluuTM0BCtZJ+kdpC70jNtsa0fnU9/9RbhrEWpu/e4Fs77F+DWQu1xsrkAzjLM8XiaQDJeuLduJ4+rzHdHHnvwe2I+v253JXGqmlS5LW5pxtxIA0GtdpxNonBPl0S/SZQhQn4HRYUfpF+FGaJCWC3Hj8zXmLssw3igcLMr0gr66Q2Mcr6AUaPoQJudpeo6T/sPcnXvq2aFPKvMEmng8UTaMlX+sBmOxJC0XTsPirAsrQ98+mMjFlVzorcKHXiC6Ak083mjhOYw9Wuyl48mxFmWXRZvl41stOvvjTxeh3RcB3H85XBRlY0O4kAFkCBL9or8SHoadmH5XxqrvLQPEEC5koLB2dPqANQ46sZ0OIrVL4Pqxd7yD88jlLtTc9eOXw6es+qrhNSBfK+ozMOl1ahteB97fgyEYy9+Dvq8VpKftJkHE6iu5P8/ju5Rs6cv/VP8szbBjyWdpAGA+ret0Ao1zour6RflkkdwtnvVOxww7NKVxReiYhoeMaqDpH98oUBRkA03uOOqx9uGwDyI9Yx6s+ckEmvHx2h6LVvqXabtOLyat0DENMLkF5mjxZ7DHKSwGI2vBaC4S+0tsSpebWbspuRBgBY+JURjSrB0e4wsE3JeR1b8QoBZ4fL4TTsWAYvpF+OwdpT6Xw7WTuoru+Z2G4+71OtmJMcKPofR70L3mMr8Hq9fvsBtYOU6nFmhq9Us/DX/pudws4bIzADgSret0Ao1zoqrETsDUdDG+aaCZLviF5bgNuyrVQKOOWRkzG2gyQUwHwlH/NLf6mHsXaPSCbWW8wPMtGHUwyenORwSe3qpfaeG55A40tc/P6Eu/ksLXMNfCQSmMGJd+dUaByvc5nZ7jEjh5TNeYc7oQPvvjPvi0fK6mfy3p18ggEzw2CTT2a3KQxnXvqixUA8twzsMxsmN6Pz+TEGgA4Ei0rtMJNM6JqnIEAmmeQFPbeZk30Cx15zUEm8xjmDXQpPt6Lgg0w8JxvNDT/eYNNJUdGvdOSOQLGqVdHN9uSR9SXF/D3HL+Itjs5iue19+h8Ybj3kyBpvaamzXQrPS/E73p7+I6OzT/Ej5+yqhbqu9aAgDatK7TCTTOiaprWyTPc8lZpk5wHSdqDGSdwjlkA03uOGqsaf9+fkfhbO8CTa5OLxDnCjT2OLqfazHrDjSVz9A0BRrHbsiCdQnbqG7GQOO6BE7p+jRfgtZ4ydnwbWdrf4amIRDMEWh8Acr4nE1O0/n37PPjMzQAcAha1+kEGudEefS7CL5QsHGgSbsvtV2aYUE/3qVZLOgnuzZGYKjoH699/GygMc97emyrfzdncj4y4WX0HDQGmosvvhPefGvhxccndUlpIdcvvMaLtH5xJxdjcwWa6bn0fRZlo37DZxVG57w4h8mXAvgCTflbnYZLzjyXYrnCTyWMDLskrlA0+ZIAI7g0BbKo5XK29czzLWfDa64aMqLNA439mptKr9fRa2zxWpy85obXoiv8dPKPof5/0KzwLWcAcDRa1+kEGudEeaVQM2KEhM0DTZTCwdg0UA2BYSkTgkQgmLSb1Kl6JR9oen04WdHhwuw/nINsO57veD79Y10v0JwLT76+YaCJhsVXuuxluohsCTRynMGo37BwTOJ5deEkc8xlWxVeWgLN8C/S2c8M6K9G7kxDwuZfCNDrx1HHm+yYDMFDtMmN2Ycfq910jGirl5vN+v/Q6NdAb/r8zhFoIvXa7Bi7LMM/AizljqvbiWObvyu5cYbPxfzZoy/Y9QmfnwGAI9O6TifQOCcKgDDDv0q7Lhdr3jEB6uq7NL5L0y6eec/1fzIBANq0rtMJNM6JAjDWfZZmzVCTdlWKl4qlnZ6df5MYjr8hsGRCTXepWe2ytC7U89kZANiG1nU6gcY5UQCmulDjvtxGXrKV33WRl5Dt5tvDcDL1oWZy6Vl3qVntMzb9pWaEGQDYjtZ1OoHGOVEAAAAAtq91nU6gcU4UAAAAgO1rXacTaJwTBQAAAGD7WtfpBBrnRAEAAADYvtZ1OoHGOVEAAAAAtq91nU6gcU4UAAAAgO1rXacTaJwTBQAAAGD7WtfpBBrnRAEAAADYvtZ1OoHGOVHruuH8k+Hi+VvMuuSaM98MF++7O1xj1M2pO843FueTWOf1+QvjNjs4r+27JZwVj+meMzcZbYbnaueP+6bwxfvEcRfOfn7azvXcHarj9pq77u5wz+JxWM9jUTcPF8INVl10LH83k/Hv6MVvfDN88TqrnVNmLuPveO73fyn2PVZzCwCHp3WdTqBxTtRauoVN7Y25fyNvXvy06t7gK+ey7kJsHZ7zmcUQGFIAyDzGPjCkBZDqs0VdiKotno5qrnZhR6+5SSBMtvFY13lMtT67/N3cuZlfd6W5GurKoWY4H0INAByZ1nU6gcY5Uetw7bxk/iVxbvu0U9TZ2SJdB8b+vl7Q6PlxBY2N+cKs57mbx+4Dza5ec+PAumXN4cN+TUo7/d3ctW6+5vpbUJ9L398exzgAgK1pXacTaJwT1c6zWO0XkNt/0/QtVHeziB/sONAs57g77vR5GT/2vs/WF/auhe8uQ8buA82uXnP7HGg8c7DT382a5sBWMePfAu88udrt7G8UAEBrXacTaJwT1ax7M6wsoGb4l8nujTkuvgf2ImOuQDOMszxe5tyHBc+ynTiuPt8RfewhfEjrLKL6Y34znD0fF7WL29Y8DMe65/yF4dw3Wfy2zdPGgUbPU6bteO7FOennSxmfn35sCxsstOuvuSFcLum57M+nC6yjeRi3cweayWsu00e1G/2jxPL3ejxX9j9ceP7hozJP3bnE8xzP1Tb/oaSfz5mO0Z1/6XdkOpf2a9w3l525fvcAAFvRuk4n0Dgnqo3vjbC+mCsxjqHepNOiwzYsICYLuLHVG36/WBgtYKyFyDCebjdZOJQWMZFrweGVFnqF4y2kBf9mi7TaPKmFmTa8HlzP3bKdXHRbr710TNXuvH7tWX3HNnvNDobXSM7yOR9eA3Iu07ysXhdyPlePT5/ndJ4M8XjWvKnHOz2HWHZh9doaznvUZnjMk9dz6ffAO0/Ldvp1UX69bywdd63Xwzh8TaTnYa65nOif29rvejePm77eAQDNWtfpBBrnRDXp3oRrb6wN/5po6d68pwu0biE3WZDWF6pRabFqv7HrRcGwSKkcp1NbfDQtTgrSgui+b44Wx+MFbloUL9rIBezQt+U58s3TwDV+6bnLvIbUa8O/uK29Tmr17UqvObtOn8NwX7UbP7/p/qKd4lrQyt+z4Tkr9jOfVyPoLtivl6nSPJm/K2u8dsshI/f6SX2mf4vcSr/rW5jLpDinyVx/hwAATVrX6QQa50S18LxRThZKjXILtM7k2L6FaHVxaR0rSuO2LKKqC4XhnIdjtC3MkvFiN81ZHEsufvry4VyGx9A9pu5222LGNU+Ja74Kz106V9PqvF0Lt47jddI9b8MxXGOW5c+tPxcrOMjnznXOC/1zXP99s58/0c+zwDWfV3sR7n1uiu2sc3K9tuYyPAfrHq80p1uYy8TV3vN8AwBm17pOJ9A4J8qvf7P1LFKtxZqXd4HW8y36Sm/wrjf/lkVUw0KhO/Zi3KhtzqYLn36sYSdmmI/JY+vObdHvvpY57rnmKXHNV+G5c863/5x8r5POcOzJgr9R/tzyvyPbCjTptSFfk5N+ntdtwyJ8/Fjyis+hdU4tv4sb6R/XJq+B4pxuYS6Tbk5rr/Xu3DZ4bACAtbSu0wk0zoly87wBdm/SvsV8lmdhtbR5oPEsCHMLDVPT+feKizqTdT5pAbY6tjVuV+Z9LIJvngauRWfpufPNt/+cGgJNsuHCufSc2nX6HOcKNPY4k36ex9uwCPf+HhRf+9YYaz0v6XfDYpzjcIy230lDaQ62MJe9/vl2/e5s+vgAAM1a1+kEGudE+fjeJLvFScui0TQswGZcqBYXTWmxU3lz7xeAagGyWGhMFlbDQqU2Vyu+x6B1j2m0yEnzJsbqFkLjc0mPwx1Olnzz1HEtOsuP25zvCeucFuNOvhQgzVfDYy4sIvux8uceFV9z2efFeD4rr4u+X/lx6XPJvQamr6nYdvqlAK5FeLZ8rD5P6jlwvbbWl+bG//tbUHgNbWMuOzP87gEAtqd1nU6gcU6US/cmmXljXurfdOdZaIjFuTAd2/fGXFw0dfpzHx/PeLzDQnQpd1zdzlxMCmsuLPoF6Eqcn+X4aUzrnIdFz9qhZsSYp5kWVb650q+V3Ot0+ppanZ/zcelxCudefc0tn4NEPxe+17Y5R9Gon3p88by618X0+dfjjRbR5vPaj20ttvvXZ1vYGrECgeu1taa5x7bOP9nCXEbV111UOi8AwFa1rtMJNM6J8vC8SfYLodYFMoDjK79ARyvHXLqCCs8JAByl1nU6gcY5UXX9G2D5Xy37f03mTRLASLfI5m/DLEpzOez4lOd52PWr7eAAALamdZ1OoHFOFABsVbcQZ/d2Fpm5jLvo1dAY+xJmAOBIta7TCTTOiQIAAACwfa3rdAKNc6IAAAAAbF/rOp1A45woAAAAANvXuk4/yEDz7LPPulh9k9aJAgAAALB9rev0gw00V13z6SICDQAAAHB4WtfpBBrnRAEAAADYvtZ1+skONH9BoAEAAAD2Ses6/XADzaN/Hv74jx8JYeGPr//1eoFmcOrfftpsAwAAAGB3Pv3J/2m0TrfaaIe/QzMEm99dags0//XPPyomS94GAAAAcDTG63JrHa8di0vO/v7tj4Tw9lWjslqg+fur/mI0WQAAAAD2x//1r/97cx2vndhAE/2fH/9zMWns0gAAAABH76Ph//7Xf2Ku3y0nOtAAAAAAOGwEGgAAAAAH61gEmqsu/UkI//ivwq8eJdAAAAAAJ8nxCDSdq8Lvuq9x/pPw9wQaAAAA4EQ4FoHmP7/+r5ZBJpURaAAAAIDjj8/QAAAAADhYBBoAAAAAB4tAAwAAAOBgEWgAAAAAHKxjEGj6bzf74+t/LcoINAAAAMBJcLiB5tE/D3/svqZ5ujtDoAEAAABOhmNxyZmFQAMAAAAcfwQaAAAAAAeLQAMAAADgYB1soPGw+gIAAAA4Pg4y0AAAAABARKABAAAAcLAINAAAAAAOFoEGAAAAwMEi0AAAAAA4WAQaAAAAAAeLQAMAAADgYBFoAAAAABwsAg0AAACAg0WgAQAAAHCwCDQAAAAADtS14f8H0HRXlv7C/cEAAAAASUVORK5CYII=;" vertex="1" parent="1">
                    <mxGeometry x="-110" y="160" width="820" height="453" as="geometry"/>
                </mxCell>
                <mxCell id="3" value="&lt;div style=&quot;border-color: rgb(0, 0, 0); color: rgb(255, 0, 0); font-family: Helvetica; font-style: normal; font-variant-ligatures: normal; font-variant-caps: normal; font-weight: 400; letter-spacing: normal; orphans: 2; text-align: left; text-indent: 0px; text-transform: none; widows: 2; word-spacing: 0px; -webkit-text-stroke-width: 0px; text-decoration-thickness: initial; text-decoration-style: initial; text-decoration-color: initial; font-size: 12px;&quot;&gt;&lt;/div&gt;&lt;font color=&quot;#ff0000&quot;&gt;&lt;span style=&quot;font-size: 24px;&quot;&gt;&amp;nbsp; &amp;nbsp; 当既会读取foo的值，又设置foo的值，副作用函数正在执行，还没执行完毕，又开始下一次的执行，导致无限递归调用自己，导致栈溢出。&lt;br&gt;&lt;/span&gt;&lt;/font&gt;" style="text;whiteSpace=wrap;html=1;labelBackgroundColor=#FFFF00;" vertex="1" parent="1">
                    <mxGeometry x="300" y="640" width="380" height="150" as="geometry"/>
                </mxCell>
                <mxCell id="4" value="" style="shape=image;verticalLabelPosition=bottom;labelBackgroundColor=default;verticalAlign=top;aspect=fixed;imageAspect=0;image=data:image/png,iVBORw0KGgoAAAANSUhEUgAAAPMAAABECAYAAABUOQPyAAAAAXNSR0IArs4c6QAAAARnQU1BAACxjwv8YQUAAAAJcEhZcwAADsMAAA7DAcdvqGQAAAdqSURBVHhe7Z3PaxRJFMfzL+TszVMOQVeQVRR0MZfdYIhBdONJs0GDrhEvi7uIqIsHE0lAUTAnhWCyEsElh42CEHBBQQTRg4JkYcE/YPEveDtdP3qqq19X/+6ZqfkePhCmqme0+33qvVfdwwwMDe8mAEDvA5kB8ATIDIAnQGYAPKExmQ/cu0D3//6tzepofN616eicjWN0wJ7TCW5tI/q0jda4Mc2eVXp38S2t7LFeP7RBn0+v0oz5Wo8xf+Ijfb4YsEHzzDjoDpqRWUh6gc5OM2Oa6WM01xL48jVmrGKOruZYKM5tp6+fBmjrFjMWskDPWsH+bmyWGZulldMtEXpU6Jmxt5C4R2hEZiEPl4kNROZuKBNnl3mItloif13eyYxplKwnFpgxjUv2bkb+33rv392fNCDzQTq7kS5zrmxZkqyftbYxQPRmO80xY5rMmSsot7kyvEomlujwXy9pZJYZKwRk7iVKySykMHpcvkSuSmb1PuHnJZTtVt89d++gGhuly8brNu15GpmV3eV1nmDPksHLs+PGczreEvrwjTPseD4gcy9RUGZGUKvnjW14RVAi2hteFu3FQYoYEY7pw/VnmovKgXvTMekzZWax6TVIr88xYxqx6fWRnh1ixhhEFm+id55dFUIff7xEO7jxzEDmXqKYzEKkaTpqvS4kiWXg8pmZ76fl+4aCq8UknmHjZJF5bnkwtcSWpXOOzaHCpfbvNBLIyfKc9k+4jlml3bGxjCTt0IOupJDMzqybIF0ZmcUY91kB+n2z7Jgrsshcab+saaJvjnCG9j+W0ufqo1XF0eu31PqNEjLHMzNPRTKnyFe1zPVl5qZu81SVmbO3EaCzlCizs4lTWZmdtnjkuE+daXHoqp45Z5mtdrXRM/cXxWTWgmbKzuVlDneiUwQU7xHbFItvgMnFIW0xquoeswa72aBeCsocoIWOEs+MVcgcwN1aigtp9/NJG2JSfPc80TenPMYp++YMfXAT/TLuM/c1JWTuB/AEGGTuHSBzGqJ3ThFa7/6yQivZe3RnWH7JoqlNO1AGyJyFvv7WlFqMgsUKUnc1kBkAT4DMAHgCZAbAEyAzAJ6QW+b9331Pw9/sZccAAJ0DMgPgCZAZAE+AzAB4Qm/IfO49TT39QiPjzFgCu65+aR3zH03dWWHHszJ6fZ3W1jfb3L3EzvOK8U2abJ27cdc3xmzUMVNP39M+bjwzl2jRPN/r63TlCDcP2EBmF+cf9mcwdUzmSbryyN8F89TEB3r16z/06uRtdrws3spcBTN3+yQT2xSRuQqOLNIDHxfPvU/oRUviFxNP6A/I3AmZ/c4STjols5eV0O2WwB/o/l79t+8yC1mDEk2xvEm7YuNB+bZC48a8yas3jfeJjvFz8pBBZhF8QV+neLRIo7F53dgD2ufKWiiFzMFrN2lk2ZhntSz77hhjGvva5SFVZnVNjPO5eD4+r+p9jqUff6F/fzpKl5mxfHgus+xtzWDSAWT0XqHsxrzUbC0DNq/MsUCI0A40Oc8MPB1oD9vfkBJl4yY9uD6p5rTfnwvCRlBZ1zwven8hzMRh/xt/zZWthdy5ZbYXO4tQRDXPFFMtpub5Fa2ReQ30cexCmw3InIkE4ezAYcWV0ifLWkzmNq7MLAPEDCKBkleLKgIrFkRFyvcf6OX5VkCx/Ex/fssdw8MLpxZQnXkTxBXHOjYUi8ls4MjMchE0JZVEzrF1/kNKlu+QOQsiaLjsaomakIXdwVWjzIkbNfIYKbn5d3SeCMwSmaI4yQugyM5axASZI3MY6pQ5cTNSHKMkN/+OIBff7NWQa/EMOEVL7HFpQGZnZobMeSgnc5qs/sgcBZk5E2XK7DRZUWZz8MJZCyMrc9riWa/MKLPT6fgGmAiAiKgqaMygYGSWx7keUHDLLIKgdeGTpXJLJ483A0TNN+UVQRSVXgZl8cAqjTiX0fMS24RkZI7NYXDJLP/f1vmxcUmnRI1cD3V+2/KqaxCRXm2A5Vo8o0DmHMhACeRU2Ku/Cq7InNQM4JJZX3TXRU7PoGGAari5OghDuDKwYWLn014U5bmLnO8MT3a5ZA4Xz6IyC5SYIfzc8LMUXKvTJFdPtgQOJI6h7z9XQ1fIXA8yIO2+D9SHkNlRhoN68UbmILvHy8L0bAIKEmR3U1y2zwZN4lFmVr12jrIQlMNujyByZ/G4zAagv4DMAHgCZAbAE3LLDADoTiAzAJ4AmQHwBMgMgCcUlnle/G5v2s987qTXbwZo6xY3BgCoktKZWUjt+v1h9WPlEBqAeilfZif9yLjB3PJg+o+VAwBK0YjMutymjSFmDABQBQ3J3EKU24P0Gs/vAlALzck8PERb6J0BqI3yMg/P0srpj/T5xAIzZoJSG4A6qUBmyczYW3Gr6t3YLDsOmQGolwpkXqBnTok1UuavyzuZMQBAWdAzA+AJzcmM3WwAaqUhmdEvA1A3jciMJ8AAqJ/SMstdbMeXLfBsNgCNUFjm9remXFlZltcQGYD6KV9mAwC6AsgMgCdAZgA8ATID4AW76X8U0TdIL9/nZQAAAABJRU5ErkJggg==;" vertex="1" parent="1">
                    <mxGeometry y="700" width="243" height="68" as="geometry"/>
                </mxCell>
            </root>
        </mxGraphModel>
    </diagram>
</mxfile>